<svg xmlns="http://www.w3.org/2000/svg" xmlns:xlink="http://www.w3.org/1999/xlink" width="250" zoomAndPan="magnify" viewBox="0 0 187.5 187.499992" height="250" preserveAspectRatio="xMidYMid meet" version="1.0"><defs><clipPath id="369ef043cd"><path d="M 1.449219 1.449219 L 185.550781 1.449219 L 185.550781 185.550781 L 1.449219 185.550781 Z M 1.449219 1.449219 " clip-rule="nonzero"/></clipPath><clipPath id="eb4955573e"><path d="M 93.5 1.449219 C 42.664062 1.449219 1.449219 42.664062 1.449219 93.5 C 1.449219 144.339844 42.664062 185.550781 93.5 185.550781 C 144.339844 185.550781 185.550781 144.339844 185.550781 93.5 C 185.550781 42.664062 144.339844 1.449219 93.5 1.449219 Z M 93.5 1.449219 " clip-rule="nonzero"/></clipPath><linearGradient x1="0.00000051709" gradientTransform="matrix(6.25, 0, 0, 6.25, -0.0000000247399, -0.00000643889)" y1="0.00000051709" x2="63.999995" gradientUnits="userSpaceOnUse" y2="63.999995" id="0091e4af0c"><stop stop-opacity="1" stop-color="rgb(68.199158%, 98.799133%, 99.998474%)" offset="0"/><stop stop-opacity="1" stop-color="rgb(68.07251%, 98.63739%, 99.882507%)" offset="0.0078125"/><stop stop-opacity="1" stop-color="rgb(67.817688%, 98.31543%, 99.649048%)" offset="0.015625"/><stop stop-opacity="1" stop-color="rgb(67.564392%, 97.993469%, 99.417114%)" offset="0.0234375"/><stop stop-opacity="1" stop-color="rgb(67.30957%, 97.671509%, 99.183655%)" offset="0.03125"/><stop stop-opacity="1" stop-color="rgb(67.056274%, 97.349548%, 98.951721%)" offset="0.0390625"/><stop stop-opacity="1" stop-color="rgb(66.802979%, 97.027588%, 98.718262%)" offset="0.046875"/><stop stop-opacity="1" stop-color="rgb(66.548157%, 96.705627%, 98.484802%)" offset="0.0546875"/><stop stop-opacity="1" stop-color="rgb(66.294861%, 96.385193%, 98.252869%)" offset="0.0625"/><stop stop-opacity="1" stop-color="rgb(66.040039%, 96.063232%, 98.019409%)" offset="0.0703125"/><stop stop-opacity="1" stop-color="rgb(65.786743%, 95.741272%, 97.787476%)" offset="0.078125"/><stop stop-opacity="1" stop-color="rgb(65.533447%, 95.419312%, 97.554016%)" offset="0.0859375"/><stop stop-opacity="1" stop-color="rgb(65.278625%, 95.097351%, 97.322083%)" offset="0.09375"/><stop stop-opacity="1" stop-color="rgb(65.02533%, 94.775391%, 97.088623%)" offset="0.101562"/><stop stop-opacity="1" stop-color="rgb(64.770508%, 94.45343%, 96.855164%)" offset="0.109375"/><stop stop-opacity="1" stop-color="rgb(64.517212%, 94.13147%, 96.62323%)" offset="0.117188"/><stop stop-opacity="1" stop-color="rgb(64.263916%, 93.809509%, 96.389771%)" offset="0.125"/><stop stop-opacity="1" stop-color="rgb(64.009094%, 93.487549%, 96.157837%)" offset="0.132812"/><stop stop-opacity="1" stop-color="rgb(63.755798%, 93.165588%, 95.924377%)" offset="0.140625"/><stop stop-opacity="1" stop-color="rgb(63.500977%, 92.843628%, 95.692444%)" offset="0.148438"/><stop stop-opacity="1" stop-color="rgb(63.247681%, 92.521667%, 95.458984%)" offset="0.15625"/><stop stop-opacity="1" stop-color="rgb(62.994385%, 92.199707%, 95.225525%)" offset="0.164062"/><stop stop-opacity="1" stop-color="rgb(62.739563%, 91.877747%, 94.993591%)" offset="0.171875"/><stop stop-opacity="1" stop-color="rgb(62.486267%, 91.555786%, 94.760132%)" offset="0.179688"/><stop stop-opacity="1" stop-color="rgb(62.231445%, 91.233826%, 94.528198%)" offset="0.1875"/><stop stop-opacity="1" stop-color="rgb(61.978149%, 90.911865%, 94.294739%)" offset="0.195312"/><stop stop-opacity="1" stop-color="rgb(61.724854%, 90.591431%, 94.062805%)" offset="0.203125"/><stop stop-opacity="1" stop-color="rgb(61.470032%, 90.26947%, 93.829346%)" offset="0.210937"/><stop stop-opacity="1" stop-color="rgb(61.216736%, 89.94751%, 93.595886%)" offset="0.21875"/><stop stop-opacity="1" stop-color="rgb(60.961914%, 89.625549%, 93.363953%)" offset="0.226562"/><stop stop-opacity="1" stop-color="rgb(60.708618%, 89.303589%, 93.130493%)" offset="0.234375"/><stop stop-opacity="1" stop-color="rgb(60.455322%, 88.981628%, 92.89856%)" offset="0.242188"/><stop stop-opacity="1" stop-color="rgb(60.2005%, 88.659668%, 92.6651%)" offset="0.25"/><stop stop-opacity="1" stop-color="rgb(59.947205%, 88.337708%, 92.431641%)" offset="0.257812"/><stop stop-opacity="1" stop-color="rgb(59.692383%, 88.015747%, 92.199707%)" offset="0.265625"/><stop stop-opacity="1" stop-color="rgb(59.439087%, 87.693787%, 91.966248%)" offset="0.273438"/><stop stop-opacity="1" stop-color="rgb(59.185791%, 87.371826%, 91.734314%)" offset="0.28125"/><stop stop-opacity="1" stop-color="rgb(58.930969%, 87.049866%, 91.500854%)" offset="0.289062"/><stop stop-opacity="1" stop-color="rgb(58.677673%, 86.727905%, 91.268921%)" offset="0.296875"/><stop stop-opacity="1" stop-color="rgb(58.422852%, 86.405945%, 91.035461%)" offset="0.304688"/><stop stop-opacity="1" stop-color="rgb(58.169556%, 86.083984%, 90.802002%)" offset="0.3125"/><stop stop-opacity="1" stop-color="rgb(57.91626%, 85.762024%, 90.570068%)" offset="0.320312"/><stop stop-opacity="1" stop-color="rgb(57.661438%, 85.440063%, 90.336609%)" offset="0.328125"/><stop stop-opacity="1" stop-color="rgb(57.408142%, 85.118103%, 90.104675%)" offset="0.335938"/><stop stop-opacity="1" stop-color="rgb(57.15332%, 84.797668%, 89.871216%)" offset="0.34375"/><stop stop-opacity="1" stop-color="rgb(56.900024%, 84.475708%, 89.639282%)" offset="0.351562"/><stop stop-opacity="1" stop-color="rgb(56.646729%, 84.153748%, 89.405823%)" offset="0.359375"/><stop stop-opacity="1" stop-color="rgb(56.391907%, 83.831787%, 89.172363%)" offset="0.367188"/><stop stop-opacity="1" stop-color="rgb(56.138611%, 83.509827%, 88.94043%)" offset="0.375"/><stop stop-opacity="1" stop-color="rgb(55.883789%, 83.187866%, 88.70697%)" offset="0.382812"/><stop stop-opacity="1" stop-color="rgb(55.630493%, 82.865906%, 88.475037%)" offset="0.390625"/><stop stop-opacity="1" stop-color="rgb(55.377197%, 82.543945%, 88.241577%)" offset="0.398438"/><stop stop-opacity="1" stop-color="rgb(55.122375%, 82.221985%, 88.009644%)" offset="0.40625"/><stop stop-opacity="1" stop-color="rgb(54.86908%, 81.900024%, 87.776184%)" offset="0.414063"/><stop stop-opacity="1" stop-color="rgb(54.614258%, 81.578064%, 87.542725%)" offset="0.421875"/><stop stop-opacity="1" stop-color="rgb(54.360962%, 81.256104%, 87.310791%)" offset="0.429688"/><stop stop-opacity="1" stop-color="rgb(54.107666%, 80.934143%, 87.077332%)" offset="0.4375"/><stop stop-opacity="1" stop-color="rgb(53.852844%, 80.612183%, 86.845398%)" offset="0.445313"/><stop stop-opacity="1" stop-color="rgb(53.599548%, 80.290222%, 86.611938%)" offset="0.453125"/><stop stop-opacity="1" stop-color="rgb(53.344727%, 79.968262%, 86.380005%)" offset="0.460938"/><stop stop-opacity="1" stop-color="rgb(53.091431%, 79.646301%, 86.146545%)" offset="0.46875"/><stop stop-opacity="1" stop-color="rgb(52.838135%, 79.324341%, 85.913086%)" offset="0.476563"/><stop stop-opacity="1" stop-color="rgb(52.583313%, 79.003906%, 85.681152%)" offset="0.484375"/><stop stop-opacity="1" stop-color="rgb(52.330017%, 78.681946%, 85.447693%)" offset="0.492188"/><stop stop-opacity="1" stop-color="rgb(52.075195%, 78.359985%, 85.215759%)" offset="0.5"/><stop stop-opacity="1" stop-color="rgb(51.821899%, 78.038025%, 84.9823%)" offset="0.5"/><stop stop-opacity="1" stop-color="rgb(51.695251%, 77.877808%, 84.866333%)" offset="0.507812"/><stop stop-opacity="1" stop-color="rgb(51.568604%, 77.716064%, 84.74884%)" offset="0.515625"/><stop stop-opacity="1" stop-color="rgb(51.313782%, 77.394104%, 84.516907%)" offset="0.523438"/><stop stop-opacity="1" stop-color="rgb(51.060486%, 77.072144%, 84.283447%)" offset="0.53125"/><stop stop-opacity="1" stop-color="rgb(50.805664%, 76.750183%, 84.051514%)" offset="0.539062"/><stop stop-opacity="1" stop-color="rgb(50.552368%, 76.428223%, 83.818054%)" offset="0.546875"/><stop stop-opacity="1" stop-color="rgb(50.299072%, 76.106262%, 83.586121%)" offset="0.554688"/><stop stop-opacity="1" stop-color="rgb(50.04425%, 75.784302%, 83.352661%)" offset="0.5625"/><stop stop-opacity="1" stop-color="rgb(49.790955%, 75.462341%, 83.119202%)" offset="0.570312"/><stop stop-opacity="1" stop-color="rgb(49.536133%, 75.140381%, 82.887268%)" offset="0.578125"/><stop stop-opacity="1" stop-color="rgb(49.282837%, 74.81842%, 82.653809%)" offset="0.585938"/><stop stop-opacity="1" stop-color="rgb(49.029541%, 74.49646%, 82.421875%)" offset="0.59375"/><stop stop-opacity="1" stop-color="rgb(48.774719%, 74.1745%, 82.188416%)" offset="0.601562"/><stop stop-opacity="1" stop-color="rgb(48.521423%, 73.852539%, 81.956482%)" offset="0.609375"/><stop stop-opacity="1" stop-color="rgb(48.266602%, 73.530579%, 81.723022%)" offset="0.617188"/><stop stop-opacity="1" stop-color="rgb(48.013306%, 73.210144%, 81.489563%)" offset="0.625"/><stop stop-opacity="1" stop-color="rgb(47.76001%, 72.888184%, 81.257629%)" offset="0.632812"/><stop stop-opacity="1" stop-color="rgb(47.505188%, 72.566223%, 81.02417%)" offset="0.640625"/><stop stop-opacity="1" stop-color="rgb(47.251892%, 72.244263%, 80.792236%)" offset="0.648437"/><stop stop-opacity="1" stop-color="rgb(46.99707%, 71.922302%, 80.558777%)" offset="0.65625"/><stop stop-opacity="1" stop-color="rgb(46.743774%, 71.600342%, 80.326843%)" offset="0.664062"/><stop stop-opacity="1" stop-color="rgb(46.490479%, 71.278381%, 80.093384%)" offset="0.671875"/><stop stop-opacity="1" stop-color="rgb(46.235657%, 70.956421%, 79.859924%)" offset="0.679688"/><stop stop-opacity="1" stop-color="rgb(45.982361%, 70.63446%, 79.627991%)" offset="0.6875"/><stop stop-opacity="1" stop-color="rgb(45.727539%, 70.3125%, 79.394531%)" offset="0.695312"/><stop stop-opacity="1" stop-color="rgb(45.474243%, 69.99054%, 79.162598%)" offset="0.703125"/><stop stop-opacity="1" stop-color="rgb(45.220947%, 69.668579%, 78.929138%)" offset="0.710937"/><stop stop-opacity="1" stop-color="rgb(44.966125%, 69.346619%, 78.697205%)" offset="0.71875"/><stop stop-opacity="1" stop-color="rgb(44.71283%, 69.024658%, 78.463745%)" offset="0.726562"/><stop stop-opacity="1" stop-color="rgb(44.458008%, 68.702698%, 78.230286%)" offset="0.734375"/><stop stop-opacity="1" stop-color="rgb(44.204712%, 68.380737%, 77.998352%)" offset="0.742188"/><stop stop-opacity="1" stop-color="rgb(43.951416%, 68.058777%, 77.764893%)" offset="0.75"/><stop stop-opacity="1" stop-color="rgb(43.696594%, 67.738342%, 77.532959%)" offset="0.757812"/><stop stop-opacity="1" stop-color="rgb(43.443298%, 67.416382%, 77.2995%)" offset="0.765625"/><stop stop-opacity="1" stop-color="rgb(43.188477%, 67.094421%, 77.06604%)" offset="0.773437"/><stop stop-opacity="1" stop-color="rgb(42.935181%, 66.772461%, 76.834106%)" offset="0.78125"/><stop stop-opacity="1" stop-color="rgb(42.681885%, 66.4505%, 76.600647%)" offset="0.789062"/><stop stop-opacity="1" stop-color="rgb(42.427063%, 66.12854%, 76.368713%)" offset="0.796875"/><stop stop-opacity="1" stop-color="rgb(42.173767%, 65.80658%, 76.135254%)" offset="0.804688"/><stop stop-opacity="1" stop-color="rgb(41.918945%, 65.484619%, 75.90332%)" offset="0.8125"/><stop stop-opacity="1" stop-color="rgb(41.665649%, 65.162659%, 75.669861%)" offset="0.820313"/><stop stop-opacity="1" stop-color="rgb(41.412354%, 64.840698%, 75.436401%)" offset="0.828125"/><stop stop-opacity="1" stop-color="rgb(41.157532%, 64.518738%, 75.204468%)" offset="0.835938"/><stop stop-opacity="1" stop-color="rgb(40.904236%, 64.196777%, 74.971008%)" offset="0.84375"/><stop stop-opacity="1" stop-color="rgb(40.649414%, 63.874817%, 74.739075%)" offset="0.851562"/><stop stop-opacity="1" stop-color="rgb(40.396118%, 63.552856%, 74.505615%)" offset="0.859375"/><stop stop-opacity="1" stop-color="rgb(40.142822%, 63.230896%, 74.273682%)" offset="0.867188"/><stop stop-opacity="1" stop-color="rgb(39.888%, 62.908936%, 74.040222%)" offset="0.875"/><stop stop-opacity="1" stop-color="rgb(39.634705%, 62.586975%, 73.806763%)" offset="0.882812"/><stop stop-opacity="1" stop-color="rgb(39.379883%, 62.265015%, 73.574829%)" offset="0.890625"/><stop stop-opacity="1" stop-color="rgb(39.126587%, 61.94458%, 73.34137%)" offset="0.898438"/><stop stop-opacity="1" stop-color="rgb(38.873291%, 61.62262%, 73.109436%)" offset="0.90625"/><stop stop-opacity="1" stop-color="rgb(38.618469%, 61.300659%, 72.875977%)" offset="0.914062"/><stop stop-opacity="1" stop-color="rgb(38.365173%, 60.978699%, 72.644043%)" offset="0.921875"/><stop stop-opacity="1" stop-color="rgb(38.110352%, 60.656738%, 72.410583%)" offset="0.929688"/><stop stop-opacity="1" stop-color="rgb(37.857056%, 60.334778%, 72.177124%)" offset="0.9375"/><stop stop-opacity="1" stop-color="rgb(37.60376%, 60.012817%, 71.94519%)" offset="0.945312"/><stop stop-opacity="1" stop-color="rgb(37.348938%, 59.690857%, 71.711731%)" offset="0.953125"/><stop stop-opacity="1" stop-color="rgb(37.095642%, 59.368896%, 71.479797%)" offset="0.960938"/><stop stop-opacity="1" stop-color="rgb(36.84082%, 59.046936%, 71.246338%)" offset="0.96875"/><stop stop-opacity="1" stop-color="rgb(36.587524%, 58.724976%, 71.014404%)" offset="0.976562"/><stop stop-opacity="1" stop-color="rgb(36.334229%, 58.403015%, 70.780945%)" offset="0.984375"/><stop stop-opacity="1" stop-color="rgb(36.079407%, 58.081055%, 70.547485%)" offset="0.992188"/><stop stop-opacity="1" stop-color="rgb(35.826111%, 57.759094%, 70.315552%)" offset="1"/></linearGradient></defs><g clip-path="url(#369ef043cd)"><g clip-path="url(#eb4955573e)"><path fill="#f1f8f9" d="M 1.449219 1.449219 L 185.550781 1.449219 L 185.550781 185.550781 L 1.449219 185.550781 Z M 1.449219 1.449219 " fill-opacity="1" fill-rule="nonzero"/><path stroke-linecap="butt" transform="matrix(0.460253, 0, 0, 0.460253, 1.45013, 1.450126)" fill="none" stroke-linejoin="miter" d="M 199.998551 -0.001971 C 89.546317 -0.001971 -0.00197969 89.546325 -0.00197969 199.99856 C -0.00197969 310.459282 89.546317 399.999091 199.998551 399.999091 C 310.459273 399.999091 399.999082 310.459282 399.999082 199.99856 C 399.999082 89.546325 310.459273 -0.001971 199.998551 -0.001971 Z M 199.998551 -0.001971 " stroke="url(#0091e4af0c)" stroke-width="29.253704" stroke-miterlimit="4"/></g></g><path fill="#000000" d="M 85.453125 29.683594 C 89.382812 31.351562 92.195312 34.167969 94.84375 37.445312 C 96.007812 36.546875 97.082031 35.65625 98.09375 34.585938 C 100.730469 32.070312 103.648438 30.300781 107.144531 29.238281 C 111.492188 28.390625 116.125 28.449219 120.402344 29.625 C 124.402344 31.074219 127.855469 33.351562 130.78125 36.433594 C 132.300781 38.28125 133.617188 40.269531 134.753906 42.378906 L 134.753906 43.273438 L 136.101562 43.210938 C 141.414062 43.039062 145.976562 43.851562 150.785156 46.273438 C 154.558594 48.488281 157.71875 51.417969 160.101562 55.097656 C 162.226562 58.902344 162.78125 62.476562 162.742188 66.769531 C 162.652344 69.527344 162.171875 72.066406 161.210938 74.664062 L 162.375 75.75 C 166.46875 79.648438 169.453125 83.394531 171.273438 88.847656 C 172.363281 93.121094 172.488281 97.527344 171.660156 101.859375 C 170.257812 106.828125 167.863281 110.984375 164.316406 114.730469 C 161.824219 116.992188 158.722656 119.449219 155.417969 120.289062 L 154.484375 120.402344 L 154.597656 122.058594 C 154.582031 125.402344 153.609375 128.5625 152.03125 131.496094 C 149.605469 135.183594 146.546875 138.140625 142.601562 140.140625 C 138.414062 142.132812 134.445312 143 129.820312 142.824219 L 129.71875 143.617188 C 129.101562 147.476562 127.667969 150.800781 125.300781 153.917969 C 122.246094 157.4375 119.085938 160.152344 114.691406 161.78125 L 113.675781 162.105469 L 112.863281 162.371094 C 109.542969 163 105.539062 162.925781 102.269531 162.050781 C 99.683594 161.117188 97.316406 159.804688 95.484375 157.722656 C 93.316406 154.558594 92.527344 150.625 92.152344 146.859375 C 92.066406 144.992188 92.039062 143.125 92.011719 141.257812 L 91.984375 139.640625 C 91.953125 137.945312 91.925781 136.253906 91.902344 134.558594 L 91.84375 131.101562 C 91.792969 128.28125 91.75 125.464844 91.703125 122.644531 C 90.917969 123.316406 90.128906 123.988281 89.34375 124.664062 C 88.496094 125.394531 87.695312 126.164062 86.882812 126.933594 C 84.613281 128.929688 81.910156 130.234375 78.984375 130.992188 C 74.644531 131.628906 70.300781 131.457031 66.160156 129.996094 C 62.171875 128.171875 58.859375 125.28125 56.277344 121.75 C 54.761719 119.28125 53.777344 117.027344 53.589844 114.125 L 52.523438 114.40625 C 46.296875 116 40.414062 116.585938 34.089844 115.066406 C 29.976562 113.78125 26.191406 111.828125 23.078125 108.8125 C 19.792969 105.203125 17.773438 101.203125 16.542969 96.480469 C 15.890625 92.011719 15.929688 87.285156 17.601562 83.0625 L 18.164062 81.839844 L 18.738281 80.574219 C 20.308594 77.4375 22.363281 74.851562 24.890625 72.421875 C 25.496094 72.046875 26.101562 71.671875 26.710938 71.300781 C 27.539062 70.714844 27.539062 70.714844 28.027344 69.730469 C 28.195312 67.703125 28.136719 65.730469 28.058594 63.699219 C 27.949219 60.117188 28.921875 57.007812 30.496094 53.8125 C 32.660156 50.109375 35.613281 46.679688 39.265625 44.394531 C 43.324219 42.21875 47.605469 40.535156 52.28125 40.605469 C 53.730469 40.613281 54.886719 40.5625 56.277344 40.136719 C 57.378906 39.015625 58.144531 37.84375 58.976562 36.515625 C 60.851562 33.753906 63.632812 31.921875 66.535156 30.355469 C 72.816406 27.441406 78.996094 27.355469 85.453125 29.679688 M 66.902344 36.238281 C 65.144531 37.558594 63.601562 38.972656 62.109375 40.582031 L 62.558594 41.929688 C 63.890625 42.53125 63.890625 42.53125 65.5 43.023438 C 67.921875 43.835938 70.203125 44.683594 72.421875 45.964844 L 73.320312 47.3125 C 73.179688 48.488281 73.179688 48.488281 72.871094 49.550781 L 72.421875 50 C 70.839844 50.144531 69.820312 50.035156 68.335938 49.445312 L 66.902344 48.710938 C 64.539062 47.5625 62.449219 46.851562 59.867188 46.414062 C 58.722656 48.359375 58.675781 50.269531 58.527344 52.484375 C 58.519531 54.367188 58.835938 56.066406 59.222656 57.902344 C 59.417969 58.96875 59.417969 58.96875 59.390625 60.566406 L 58.96875 61.660156 C 57.90625 62.304688 57.90625 62.304688 56.726562 62.558594 L 55.382812 62.109375 C 53.632812 58.789062 53.875 54.925781 53.953125 51.289062 L 53.972656 49.601562 C 53.988281 48.238281 54.007812 46.878906 54.035156 45.515625 C 49.363281 45.859375 45.496094 46.476562 41.480469 49.105469 C 38.082031 51.550781 36.113281 54.398438 34.292969 58.121094 C 33.023438 61.246094 33.035156 64.628906 33.410156 67.9375 C 33.914062 69.640625 34.542969 71.03125 35.652344 72.421875 C 37.003906 73.34375 37.003906 73.34375 38.34375 73.769531 L 39.238281 74.664062 C 39.351562 75.785156 39.351562 75.785156 39.238281 76.90625 L 38.34375 77.804688 C 36.882812 77.972656 36.882812 77.972656 35.203125 77.804688 C 33.855469 77.050781 32.8125 76.34375 31.785156 75.195312 L 31.167969 74.664062 C 30.09375 74.804688 29.414062 75.085938 28.507812 75.6875 C 25.554688 78.207031 23.605469 81.109375 22.253906 84.753906 C 21.25 88.558594 21.253906 92.925781 22.058594 96.765625 C 22.460938 97.960938 22.957031 99.113281 23.542969 100.226562 L 24.105469 101.292969 C 25.773438 104.089844 27.988281 106.097656 30.71875 107.847656 C 35.863281 110.402344 40.148438 110.773438 45.804688 110.605469 C 47.78125 110.480469 49.550781 110.007812 51.347656 109.191406 L 52.320312 108.847656 L 53.140625 108.296875 C 53.539062 107.222656 53.539062 107.222656 53.730469 105.941406 C 54.796875 101.117188 57.175781 96.84375 60.316406 93.050781 C 59.820312 91.449219 59.246094 90.226562 58.074219 89.015625 C 55.957031 88.4375 53.890625 88.511719 51.710938 88.566406 C 50.566406 88.566406 49.417969 88.566406 48.273438 88.566406 C 47.511719 88.578125 47.511719 88.578125 46.734375 88.59375 C 45.515625 88.566406 45.515625 88.566406 44.621094 88.117188 L 44.621094 84.976562 C 45.628906 84.472656 46.253906 84.449219 47.375 84.402344 L 48.492188 84.351562 L 49.664062 84.304688 C 52.054688 84.207031 54.375 84.09375 56.726562 83.632812 L 56.84375 82.15625 C 57.261719 77.566406 57.945312 73.519531 60.554688 69.597656 C 62.460938 67.210938 64.777344 65.707031 67.488281 64.351562 L 68.390625 63.886719 C 71.828125 62.4375 75.949219 62.652344 79.597656 63.003906 C 83.472656 63.753906 86.460938 65.914062 89.460938 68.386719 C 90.246094 69.097656 90.996094 69.84375 91.703125 70.628906 C 92.15625 66.070312 92.238281 61.542969 92.234375 56.96875 C 92.238281 55.773438 92.246094 54.582031 92.253906 53.386719 C 92.386719 46.355469 92.386719 46.355469 90.164062 39.800781 C 88.4375 37.460938 86.21875 36.027344 83.632812 34.753906 C 77.972656 32.539062 72.003906 32.78125 66.902344 36.242188 M 104.261719 36.101562 C 101.765625 37.832031 99.769531 39.839844 98.4375 42.589844 C 97.011719 46.136719 96.957031 49.976562 97 53.746094 L 97 55.144531 C 97.007812 56.597656 97.019531 58.050781 97.03125 59.503906 C 97.035156 60.496094 97.039062 61.488281 97.042969 62.480469 C 97.050781 64.898438 97.066406 67.316406 97.085938 69.730469 L 98.429688 69.730469 C 99.429688 68.917969 99.429688 68.917969 100.226562 67.9375 L 100.226562 67.042969 L 100.96875 66.675781 C 101.710938 66.300781 102.441406 65.90625 103.164062 65.5 C 106.472656 63.707031 109.453125 62.699219 113.230469 62.558594 C 117.605469 62.710938 121.175781 63.835938 124.886719 66.144531 C 127.324219 67.800781 128.960938 69.785156 130.269531 72.421875 C 131.753906 76.011719 132.398438 79.757812 132.0625 83.632812 C 131.328125 87.839844 129.65625 91.515625 126.945312 94.816406 C 125.703125 96.214844 124.40625 97.550781 123.09375 98.878906 L 122.402344 99.589844 C 120.027344 102.027344 117.613281 104.398438 115.019531 106.605469 C 113.929688 107.574219 112.910156 108.601562 111.882812 109.640625 C 110.613281 110.929688 109.339844 112.171875 107.960938 113.339844 C 105.863281 115.128906 103.949219 117.101562 102.023438 119.070312 C 100.609375 120.503906 99.113281 121.84375 97.535156 123.09375 C 96.820312 124.519531 97.011719 126.054688 97.011719 127.621094 L 97.007812 128.734375 C 97.003906 129.519531 97.003906 130.304688 97.003906 131.085938 C 97 132.257812 96.992188 133.425781 96.984375 134.597656 C 96.832031 143.859375 96.832031 143.859375 98.867188 152.800781 C 99.773438 154.351562 100.9375 155.355469 102.46875 156.277344 C 104.292969 157.128906 106.019531 157.570312 108.015625 157.792969 C 111.132812 157.46875 113.992188 156.769531 116.675781 155.101562 C 119.460938 153.082031 121.796875 150.625 123.289062 147.503906 C 124.078125 145.691406 124.230469 143.878906 124.441406 141.929688 L 123.015625 141.273438 L 121.160156 140.414062 L 120.222656 139.984375 C 118.867188 139.355469 117.613281 138.722656 116.367188 137.890625 C 115.273438 137.886719 115.273438 137.886719 114.125 138.339844 C 112.835938 139.316406 111.660156 140.382812 110.457031 141.464844 C 109.191406 142.375 109.191406 142.375 107.746094 142.753906 C 106.503906 142.824219 106.503906 142.824219 105.605469 142.375 C 105.242188 141.59375 105.242188 141.59375 105.15625 140.582031 C 106.152344 138.476562 107.652344 137.230469 109.417969 135.789062 L 110.207031 135.132812 C 111.335938 134.195312 112.457031 133.324219 113.675781 132.511719 C 114.988281 132.386719 115.984375 132.324219 117.265625 132.511719 C 118.394531 133.042969 119.320312 133.546875 120.347656 134.222656 C 123.855469 136.355469 126.757812 137.484375 130.886719 137.613281 C 134.933594 137.492188 138.382812 136.742188 141.871094 134.640625 C 144.601562 132.765625 146.441406 130.820312 147.925781 127.859375 C 148.800781 125.761719 148.796875 124 148.65625 121.75 L 147.226562 121.519531 C 141.890625 120.613281 138.101562 119.210938 133.667969 116.007812 L 132.511719 115.472656 C 131.347656 115.734375 131.347656 115.734375 130.269531 116.367188 C 127.566406 117.535156 125.167969 118.507812 122.199219 118.609375 L 120.851562 117.714844 C 120.710938 116.367188 120.710938 116.367188 120.851562 115.023438 C 121.960938 113.917969 122.835938 113.734375 124.328125 113.285156 C 127.195312 112.351562 129.230469 111.253906 131.277344 109.023438 C 132.410156 107.621094 133.035156 106.503906 133.40625 104.707031 C 133.515625 103.304688 133.605469 101.90625 133.660156 100.5 L 133.855469 99.328125 L 135.203125 98.429688 C 136.351562 98.515625 136.351562 98.515625 137.445312 98.878906 C 138.339844 100.226562 138.339844 100.226562 138.507812 101.34375 C 138.582031 104.617188 137.984375 106.90625 136.5 109.824219 L 136.097656 110.988281 C 136.253906 111.996094 136.253906 111.996094 136.996094 112.78125 C 138.179688 113.550781 138.179688 113.550781 139.574219 114.183594 L 140.96875 114.859375 C 144.234375 116.28125 146.902344 116.703125 150.449219 116.367188 C 154.515625 115.546875 157.632812 113.664062 160.761719 110.988281 C 163.460938 108.574219 164.847656 105.351562 166.144531 102.019531 C 167.105469 98.46875 166.980469 94.214844 166.300781 90.613281 C 165.109375 86.691406 162.972656 83.425781 160.003906 80.605469 C 157.421875 78.472656 154.191406 76.707031 150.898438 76.011719 C 150.292969 75.960938 149.691406 75.929688 149.085938 75.914062 C 148.75 75.902344 148.417969 75.890625 148.074219 75.875 C 147.375 75.851562 146.675781 75.832031 145.972656 75.816406 C 145.070312 75.777344 144.171875 75.675781 143.273438 75.5625 L 142.375 74.214844 C 142.488281 72.816406 142.488281 72.816406 142.824219 71.527344 C 144.957031 70.457031 148.085938 70.972656 150.449219 71.078125 C 151.710938 71.292969 151.710938 71.292969 152.746094 71.554688 C 154.414062 72.066406 154.414062 72.066406 155.859375 71.804688 L 156.726562 71.527344 C 157.660156 68.308594 158.011719 65.382812 157.285156 62.082031 C 156.390625 58.957031 154.914062 56.375 152.707031 53.984375 C 149.828125 51.324219 146.140625 49.65625 142.375 48.65625 C 140.734375 48.390625 139.109375 48.191406 137.445312 48.207031 L 136.996094 48.65625 C 136.988281 49.917969 137 51.175781 137.023438 52.441406 C 137.054688 55.433594 137.03125 58.332031 136.097656 61.210938 L 135.648438 61.660156 L 132.0625 61.660156 L 132.0625 50.898438 L 129.820312 50.449219 C 128.644531 51.199219 128.644531 51.199219 127.578125 52.300781 L 126.394531 53.421875 C 125.609375 54.214844 124.84375 55.027344 124.101562 55.859375 L 123.09375 56.726562 C 121.609375 56.867188 121.609375 56.867188 120.402344 56.726562 C 119.871094 55.746094 119.871094 55.746094 119.507812 54.484375 C 120.394531 52.136719 122.5625 50.261719 124.441406 48.65625 C 125.726562 47.796875 127.035156 46.980469 128.375 46.207031 L 129.371094 45.515625 L 129.820312 44.171875 C 128.382812 41.460938 125.890625 38.9375 123.542969 36.996094 C 120.78125 35.292969 118.34375 34.402344 115.101562 34.199219 C 111.230469 34.097656 107.71875 34.125 104.261719 36.101562 M 63.003906 97.984375 C 61.113281 99.839844 59.550781 102.105469 58.742188 104.640625 C 58.023438 107.777344 57.863281 110.769531 58.617188 113.914062 C 59.613281 117.050781 61.039062 119.710938 63.472656 121.960938 C 65.765625 123.753906 68.277344 125.003906 71.078125 125.785156 C 74.128906 126.078125 77.261719 126.15625 80.1875 125.140625 C 82.777344 123.941406 84.769531 121.949219 86.773438 119.957031 C 86.695312 119.125 86.695312 119.125 86.324219 118.160156 C 85.414062 117.1875 85.414062 117.1875 84.277344 116.257812 C 82.796875 114.972656 81.359375 113.679688 79.988281 112.277344 C 78.636719 110.902344 77.230469 109.632812 75.769531 108.378906 C 74.253906 107.035156 72.777344 105.648438 71.300781 104.261719 C 68.566406 101.695312 68.566406 101.695312 65.808594 99.160156 L 65.03125 98.449219 L 64.351562 97.984375 Z M 63.003906 97.984375 " fill-opacity="1" fill-rule="nonzero"/><path fill="#00bf63" d="M 81.050781 62.832031 C 84.222656 63.875 86.957031 65.753906 89.460938 67.9375 C 90.082031 68.667969 90.679688 69.417969 91.257812 70.179688 L 91.703125 64.800781 L 92.152344 64.800781 L 92.152344 122.644531 C 89.910156 122.199219 89.910156 122.199219 89.085938 121.644531 L 88.339844 120.964844 L 87.597656 120.300781 C 86.316406 119.070312 85.070312 117.808594 83.820312 116.546875 C 79.855469 112.515625 79.855469 112.515625 75.667969 108.722656 C 73.914062 107.195312 72.230469 105.589844 70.535156 103.996094 C 68.917969 102.476562 67.285156 100.96875 65.636719 99.480469 C 64.980469 98.890625 64.328125 98.300781 63.671875 97.714844 C 62.589844 96.671875 61.683594 95.582031 60.761719 94.394531 L 59.867188 93.5 C 59.53125 92.816406 59.210938 92.125 58.914062 91.425781 L 58.433594 90.3125 L 58.074219 89.460938 L 56.941406 89.4375 C 55.554688 89.398438 54.167969 89.363281 52.78125 89.320312 C 51.886719 89.296875 50.992188 89.273438 50.097656 89.253906 L 48.394531 89.199219 L 46.820312 89.15625 C 45.515625 89.015625 45.515625 89.015625 44.171875 88.117188 C 44.003906 86.546875 44.003906 86.546875 44.171875 84.976562 C 45.515625 84.082031 45.515625 84.082031 46.699219 83.9375 L 48.101562 83.894531 L 49.621094 83.84375 L 51.207031 83.800781 L 52.808594 83.75 C 54.113281 83.707031 55.421875 83.667969 56.726562 83.632812 L 56.703125 82.5625 C 56.644531 78.417969 57.203125 74.996094 59.113281 71.269531 C 60.882812 68.417969 63.09375 66.160156 66.0625 64.570312 C 70.855469 62.339844 75.832031 61.84375 81.050781 62.832031 M 122.421875 64.210938 C 125.371094 65.863281 127.84375 67.746094 129.738281 70.574219 C 131.695312 73.980469 132.464844 77.597656 132.625 81.503906 C 132.558594 85.375 131.253906 88.910156 129.332031 92.238281 C 127.664062 94.691406 125.617188 96.773438 123.542969 98.878906 L 122.804688 99.632812 C 120.289062 102.210938 117.753906 104.734375 115.003906 107.070312 C 113.917969 108.03125 112.90625 109.058594 111.882812 110.089844 C 110.613281 111.378906 109.339844 112.621094 107.960938 113.789062 C 105.855469 115.582031 103.945312 117.570312 102.023438 119.558594 L 101.242188 120.355469 L 100.550781 121.070312 C 99.617188 121.890625 98.601562 122.464844 97.535156 123.09375 C 97.472656 116.25 97.425781 109.40625 97.394531 102.558594 C 97.378906 99.382812 97.363281 96.203125 97.332031 93.023438 C 97.300781 89.957031 97.285156 86.890625 97.277344 83.820312 C 97.273438 82.652344 97.265625 81.480469 97.25 80.3125 C 97.230469 78.671875 97.226562 77.035156 97.230469 75.394531 L 97.199219 73.929688 C 97.226562 70.707031 97.226562 70.707031 98.109375 69.195312 C 100.449219 66.398438 103.679688 64.425781 107.035156 63.0625 C 112.121094 61.5625 117.621094 61.933594 122.421875 64.210938 " fill-opacity="1" fill-rule="nonzero"/><path fill="#000000" d="M 139.238281 80.492188 C 140.296875 80.90625 141.347656 81.355469 142.375 81.839844 L 142.375 82.734375 L 143.175781 83.101562 C 144.835938 83.992188 146.058594 85.320312 147.394531 86.632812 L 148.265625 87.449219 C 149.066406 88.238281 149.789062 88.996094 150.449219 89.910156 C 150.90625 91.613281 150.90625 91.613281 150.898438 93.050781 C 150.195312 94.171875 150.195312 94.171875 149.101562 94.84375 C 147.882812 94.847656 147.882812 94.847656 146.414062 94.394531 C 145.261719 93.503906 144.289062 92.464844 143.300781 91.398438 C 142.777344 90.84375 142.25 90.289062 141.71875 89.738281 L 140.9375 88.914062 C 139.894531 87.878906 138.773438 86.964844 137.621094 86.0625 C 136.996094 85.425781 136.996094 85.425781 136.492188 83.773438 L 136.546875 82.289062 C 137.109375 81.445312 137.109375 81.445312 137.890625 80.941406 Z M 56.726562 83.632812 C 57.027344 84.679688 57.328125 85.726562 57.625 86.773438 L 57.933594 87.835938 L 58.074219 88.566406 L 57.625 89.015625 C 55.628906 89.128906 53.625 89.097656 51.625 89.097656 L 49.917969 89.113281 L 48.28125 89.117188 L 46.773438 89.125 C 45.515625 89.015625 45.515625 89.015625 44.171875 88.117188 C 44.003906 86.546875 44.003906 86.546875 44.171875 84.976562 C 45.515625 84.082031 45.515625 84.082031 46.410156 83.9375 L 47.417969 83.894531 L 48.53125 83.84375 L 49.691406 83.800781 L 50.835938 83.75 C 52.800781 83.664062 54.761719 83.613281 56.726562 83.632812 " fill-opacity="1" fill-rule="nonzero"/></svg>