<svg xmlns="http://www.w3.org/2000/svg" xmlns:xlink="http://www.w3.org/1999/xlink" width="250" zoomAndPan="magnify" viewBox="0 0 187.5 93.749996" height="125" preserveAspectRatio="xMidYMid meet" version="1.0"><defs><g/><clipPath id="c67d9cb54a"><path d="M 0.976562 1.175781 L 92.128906 1.175781 L 92.128906 92.328125 L 0.976562 92.328125 Z M 0.976562 1.175781 " clip-rule="nonzero"/></clipPath><clipPath id="2d0861275e"><path d="M 46.550781 1.175781 C 21.378906 1.175781 0.976562 21.578125 0.976562 46.75 C 0.976562 71.921875 21.378906 92.328125 46.550781 92.328125 C 71.722656 92.328125 92.128906 71.921875 92.128906 46.75 C 92.128906 21.578125 71.722656 1.175781 46.550781 1.175781 Z M 46.550781 1.175781 " clip-rule="nonzero"/></clipPath><linearGradient x1="-0.000000254121" gradientTransform="matrix(6.25, 0, 0, 6.25, 0.000000125754, 0.00000305076)" y1="-0.000000254121" x2="64.000001" gradientUnits="userSpaceOnUse" y2="64.000001" id="1e764350c5"><stop stop-opacity="1" stop-color="rgb(68.199158%, 98.799133%, 100%)" offset="0"/><stop stop-opacity="1" stop-color="rgb(68.07251%, 98.63739%, 99.882507%)" offset="0.0078125"/><stop stop-opacity="1" stop-color="rgb(67.817688%, 98.31543%, 99.649048%)" offset="0.015625"/><stop stop-opacity="1" stop-color="rgb(67.564392%, 97.993469%, 99.417114%)" offset="0.0234375"/><stop stop-opacity="1" stop-color="rgb(67.30957%, 97.671509%, 99.183655%)" offset="0.03125"/><stop stop-opacity="1" stop-color="rgb(67.056274%, 97.349548%, 98.951721%)" offset="0.0390625"/><stop stop-opacity="1" stop-color="rgb(66.802979%, 97.027588%, 98.718262%)" offset="0.046875"/><stop stop-opacity="1" stop-color="rgb(66.548157%, 96.705627%, 98.484802%)" offset="0.0546875"/><stop stop-opacity="1" stop-color="rgb(66.294861%, 96.385193%, 98.252869%)" offset="0.0625"/><stop stop-opacity="1" stop-color="rgb(66.040039%, 96.063232%, 98.019409%)" offset="0.0703125"/><stop stop-opacity="1" stop-color="rgb(65.786743%, 95.741272%, 97.787476%)" offset="0.078125"/><stop stop-opacity="1" stop-color="rgb(65.533447%, 95.419312%, 97.554016%)" offset="0.0859375"/><stop stop-opacity="1" stop-color="rgb(65.278625%, 95.097351%, 97.322083%)" offset="0.09375"/><stop stop-opacity="1" stop-color="rgb(65.02533%, 94.775391%, 97.088623%)" offset="0.101562"/><stop stop-opacity="1" stop-color="rgb(64.770508%, 94.45343%, 96.855164%)" offset="0.109375"/><stop stop-opacity="1" stop-color="rgb(64.517212%, 94.13147%, 96.62323%)" offset="0.117187"/><stop stop-opacity="1" stop-color="rgb(64.263916%, 93.809509%, 96.389771%)" offset="0.125"/><stop stop-opacity="1" stop-color="rgb(64.009094%, 93.487549%, 96.157837%)" offset="0.132812"/><stop stop-opacity="1" stop-color="rgb(63.755798%, 93.165588%, 95.924377%)" offset="0.140625"/><stop stop-opacity="1" stop-color="rgb(63.500977%, 92.843628%, 95.692444%)" offset="0.148437"/><stop stop-opacity="1" stop-color="rgb(63.247681%, 92.521667%, 95.458984%)" offset="0.15625"/><stop stop-opacity="1" stop-color="rgb(62.994385%, 92.199707%, 95.225525%)" offset="0.164062"/><stop stop-opacity="1" stop-color="rgb(62.739563%, 91.877747%, 94.993591%)" offset="0.171875"/><stop stop-opacity="1" stop-color="rgb(62.486267%, 91.555786%, 94.760132%)" offset="0.179687"/><stop stop-opacity="1" stop-color="rgb(62.231445%, 91.233826%, 94.528198%)" offset="0.1875"/><stop stop-opacity="1" stop-color="rgb(61.978149%, 90.911865%, 94.294739%)" offset="0.195312"/><stop stop-opacity="1" stop-color="rgb(61.724854%, 90.591431%, 94.062805%)" offset="0.203125"/><stop stop-opacity="1" stop-color="rgb(61.470032%, 90.26947%, 93.829346%)" offset="0.210937"/><stop stop-opacity="1" stop-color="rgb(61.216736%, 89.94751%, 93.595886%)" offset="0.21875"/><stop stop-opacity="1" stop-color="rgb(60.961914%, 89.625549%, 93.363953%)" offset="0.226562"/><stop stop-opacity="1" stop-color="rgb(60.708618%, 89.303589%, 93.130493%)" offset="0.234375"/><stop stop-opacity="1" stop-color="rgb(60.455322%, 88.981628%, 92.89856%)" offset="0.242187"/><stop stop-opacity="1" stop-color="rgb(60.2005%, 88.659668%, 92.6651%)" offset="0.25"/><stop stop-opacity="1" stop-color="rgb(59.947205%, 88.337708%, 92.431641%)" offset="0.257812"/><stop stop-opacity="1" stop-color="rgb(59.692383%, 88.015747%, 92.199707%)" offset="0.265625"/><stop stop-opacity="1" stop-color="rgb(59.439087%, 87.693787%, 91.966248%)" offset="0.273437"/><stop stop-opacity="1" stop-color="rgb(59.185791%, 87.371826%, 91.734314%)" offset="0.28125"/><stop stop-opacity="1" stop-color="rgb(58.930969%, 87.049866%, 91.500854%)" offset="0.289062"/><stop stop-opacity="1" stop-color="rgb(58.677673%, 86.727905%, 91.268921%)" offset="0.296875"/><stop stop-opacity="1" stop-color="rgb(58.422852%, 86.405945%, 91.035461%)" offset="0.304687"/><stop stop-opacity="1" stop-color="rgb(58.169556%, 86.083984%, 90.802002%)" offset="0.3125"/><stop stop-opacity="1" stop-color="rgb(57.91626%, 85.762024%, 90.570068%)" offset="0.320312"/><stop stop-opacity="1" stop-color="rgb(57.661438%, 85.440063%, 90.336609%)" offset="0.328125"/><stop stop-opacity="1" stop-color="rgb(57.408142%, 85.118103%, 90.104675%)" offset="0.335937"/><stop stop-opacity="1" stop-color="rgb(57.15332%, 84.797668%, 89.871216%)" offset="0.34375"/><stop stop-opacity="1" stop-color="rgb(56.900024%, 84.475708%, 89.639282%)" offset="0.351562"/><stop stop-opacity="1" stop-color="rgb(56.646729%, 84.153748%, 89.405823%)" offset="0.359375"/><stop stop-opacity="1" stop-color="rgb(56.391907%, 83.831787%, 89.172363%)" offset="0.367187"/><stop stop-opacity="1" stop-color="rgb(56.138611%, 83.509827%, 88.94043%)" offset="0.375"/><stop stop-opacity="1" stop-color="rgb(55.883789%, 83.187866%, 88.70697%)" offset="0.382812"/><stop stop-opacity="1" stop-color="rgb(55.630493%, 82.865906%, 88.475037%)" offset="0.390625"/><stop stop-opacity="1" stop-color="rgb(55.377197%, 82.543945%, 88.241577%)" offset="0.398437"/><stop stop-opacity="1" stop-color="rgb(55.122375%, 82.221985%, 88.009644%)" offset="0.40625"/><stop stop-opacity="1" stop-color="rgb(54.86908%, 81.900024%, 87.776184%)" offset="0.414062"/><stop stop-opacity="1" stop-color="rgb(54.614258%, 81.578064%, 87.542725%)" offset="0.421875"/><stop stop-opacity="1" stop-color="rgb(54.360962%, 81.256104%, 87.310791%)" offset="0.429687"/><stop stop-opacity="1" stop-color="rgb(54.107666%, 80.934143%, 87.077332%)" offset="0.4375"/><stop stop-opacity="1" stop-color="rgb(53.852844%, 80.612183%, 86.845398%)" offset="0.445312"/><stop stop-opacity="1" stop-color="rgb(53.599548%, 80.290222%, 86.611938%)" offset="0.453125"/><stop stop-opacity="1" stop-color="rgb(53.344727%, 79.968262%, 86.380005%)" offset="0.460937"/><stop stop-opacity="1" stop-color="rgb(53.091431%, 79.646301%, 86.146545%)" offset="0.46875"/><stop stop-opacity="1" stop-color="rgb(52.838135%, 79.324341%, 85.913086%)" offset="0.476562"/><stop stop-opacity="1" stop-color="rgb(52.583313%, 79.003906%, 85.681152%)" offset="0.484375"/><stop stop-opacity="1" stop-color="rgb(52.330017%, 78.681946%, 85.447693%)" offset="0.492187"/><stop stop-opacity="1" stop-color="rgb(52.075195%, 78.359985%, 85.215759%)" offset="0.5"/><stop stop-opacity="1" stop-color="rgb(51.948547%, 78.199768%, 85.099792%)" offset="0.5"/><stop stop-opacity="1" stop-color="rgb(51.821899%, 78.038025%, 84.9823%)" offset="0.5"/><stop stop-opacity="1" stop-color="rgb(51.695251%, 77.877808%, 84.866333%)" offset="0.507812"/><stop stop-opacity="1" stop-color="rgb(51.568604%, 77.716064%, 84.74884%)" offset="0.515625"/><stop stop-opacity="1" stop-color="rgb(51.313782%, 77.394104%, 84.516907%)" offset="0.523437"/><stop stop-opacity="1" stop-color="rgb(51.060486%, 77.072144%, 84.283447%)" offset="0.53125"/><stop stop-opacity="1" stop-color="rgb(50.805664%, 76.750183%, 84.051514%)" offset="0.539062"/><stop stop-opacity="1" stop-color="rgb(50.552368%, 76.428223%, 83.818054%)" offset="0.546875"/><stop stop-opacity="1" stop-color="rgb(50.299072%, 76.106262%, 83.586121%)" offset="0.554687"/><stop stop-opacity="1" stop-color="rgb(50.04425%, 75.784302%, 83.352661%)" offset="0.5625"/><stop stop-opacity="1" stop-color="rgb(49.790955%, 75.462341%, 83.119202%)" offset="0.570312"/><stop stop-opacity="1" stop-color="rgb(49.536133%, 75.140381%, 82.887268%)" offset="0.578125"/><stop stop-opacity="1" stop-color="rgb(49.282837%, 74.81842%, 82.653809%)" offset="0.585937"/><stop stop-opacity="1" stop-color="rgb(49.029541%, 74.49646%, 82.421875%)" offset="0.59375"/><stop stop-opacity="1" stop-color="rgb(48.774719%, 74.1745%, 82.188416%)" offset="0.601562"/><stop stop-opacity="1" stop-color="rgb(48.521423%, 73.852539%, 81.956482%)" offset="0.609375"/><stop stop-opacity="1" stop-color="rgb(48.266602%, 73.530579%, 81.723022%)" offset="0.617187"/><stop stop-opacity="1" stop-color="rgb(48.013306%, 73.210144%, 81.489563%)" offset="0.625"/><stop stop-opacity="1" stop-color="rgb(47.76001%, 72.888184%, 81.257629%)" offset="0.632812"/><stop stop-opacity="1" stop-color="rgb(47.505188%, 72.566223%, 81.02417%)" offset="0.640625"/><stop stop-opacity="1" stop-color="rgb(47.251892%, 72.244263%, 80.792236%)" offset="0.648437"/><stop stop-opacity="1" stop-color="rgb(46.99707%, 71.922302%, 80.558777%)" offset="0.65625"/><stop stop-opacity="1" stop-color="rgb(46.743774%, 71.600342%, 80.326843%)" offset="0.664062"/><stop stop-opacity="1" stop-color="rgb(46.490479%, 71.278381%, 80.093384%)" offset="0.671875"/><stop stop-opacity="1" stop-color="rgb(46.235657%, 70.956421%, 79.859924%)" offset="0.679687"/><stop stop-opacity="1" stop-color="rgb(45.982361%, 70.63446%, 79.627991%)" offset="0.6875"/><stop stop-opacity="1" stop-color="rgb(45.727539%, 70.3125%, 79.394531%)" offset="0.695312"/><stop stop-opacity="1" stop-color="rgb(45.474243%, 69.99054%, 79.162598%)" offset="0.703125"/><stop stop-opacity="1" stop-color="rgb(45.220947%, 69.668579%, 78.929138%)" offset="0.710937"/><stop stop-opacity="1" stop-color="rgb(44.966125%, 69.346619%, 78.697205%)" offset="0.71875"/><stop stop-opacity="1" stop-color="rgb(44.71283%, 69.024658%, 78.463745%)" offset="0.726562"/><stop stop-opacity="1" stop-color="rgb(44.458008%, 68.702698%, 78.230286%)" offset="0.734375"/><stop stop-opacity="1" stop-color="rgb(44.204712%, 68.380737%, 77.998352%)" offset="0.742187"/><stop stop-opacity="1" stop-color="rgb(43.951416%, 68.058777%, 77.764893%)" offset="0.75"/><stop stop-opacity="1" stop-color="rgb(43.696594%, 67.736816%, 77.532959%)" offset="0.757812"/><stop stop-opacity="1" stop-color="rgb(43.443298%, 67.416382%, 77.2995%)" offset="0.765625"/><stop stop-opacity="1" stop-color="rgb(43.188477%, 67.094421%, 77.06604%)" offset="0.773437"/><stop stop-opacity="1" stop-color="rgb(42.935181%, 66.772461%, 76.834106%)" offset="0.78125"/><stop stop-opacity="1" stop-color="rgb(42.681885%, 66.4505%, 76.600647%)" offset="0.789062"/><stop stop-opacity="1" stop-color="rgb(42.427063%, 66.12854%, 76.368713%)" offset="0.796875"/><stop stop-opacity="1" stop-color="rgb(42.173767%, 65.80658%, 76.135254%)" offset="0.804687"/><stop stop-opacity="1" stop-color="rgb(41.918945%, 65.484619%, 75.90332%)" offset="0.8125"/><stop stop-opacity="1" stop-color="rgb(41.665649%, 65.162659%, 75.669861%)" offset="0.820312"/><stop stop-opacity="1" stop-color="rgb(41.412354%, 64.840698%, 75.436401%)" offset="0.828125"/><stop stop-opacity="1" stop-color="rgb(41.157532%, 64.518738%, 75.204468%)" offset="0.835937"/><stop stop-opacity="1" stop-color="rgb(40.904236%, 64.196777%, 74.971008%)" offset="0.84375"/><stop stop-opacity="1" stop-color="rgb(40.649414%, 63.874817%, 74.739075%)" offset="0.851562"/><stop stop-opacity="1" stop-color="rgb(40.396118%, 63.552856%, 74.505615%)" offset="0.859375"/><stop stop-opacity="1" stop-color="rgb(40.142822%, 63.230896%, 74.273682%)" offset="0.867187"/><stop stop-opacity="1" stop-color="rgb(39.888%, 62.908936%, 74.040222%)" offset="0.875"/><stop stop-opacity="1" stop-color="rgb(39.634705%, 62.586975%, 73.806763%)" offset="0.882812"/><stop stop-opacity="1" stop-color="rgb(39.379883%, 62.265015%, 73.574829%)" offset="0.890625"/><stop stop-opacity="1" stop-color="rgb(39.126587%, 61.94458%, 73.34137%)" offset="0.898437"/><stop stop-opacity="1" stop-color="rgb(38.873291%, 61.62262%, 73.109436%)" offset="0.90625"/><stop stop-opacity="1" stop-color="rgb(38.618469%, 61.300659%, 72.875977%)" offset="0.914062"/><stop stop-opacity="1" stop-color="rgb(38.365173%, 60.978699%, 72.644043%)" offset="0.921875"/><stop stop-opacity="1" stop-color="rgb(38.110352%, 60.656738%, 72.410583%)" offset="0.929687"/><stop stop-opacity="1" stop-color="rgb(37.857056%, 60.334778%, 72.177124%)" offset="0.9375"/><stop stop-opacity="1" stop-color="rgb(37.60376%, 60.012817%, 71.94519%)" offset="0.945312"/><stop stop-opacity="1" stop-color="rgb(37.348938%, 59.690857%, 71.711731%)" offset="0.953125"/><stop stop-opacity="1" stop-color="rgb(37.095642%, 59.368896%, 71.479797%)" offset="0.960937"/><stop stop-opacity="1" stop-color="rgb(36.84082%, 59.046936%, 71.246338%)" offset="0.96875"/><stop stop-opacity="1" stop-color="rgb(36.587524%, 58.724976%, 71.012878%)" offset="0.976562"/><stop stop-opacity="1" stop-color="rgb(36.334229%, 58.403015%, 70.780945%)" offset="0.984375"/><stop stop-opacity="1" stop-color="rgb(36.079407%, 58.081055%, 70.547485%)" offset="0.992187"/><stop stop-opacity="1" stop-color="rgb(35.826111%, 57.759094%, 70.315552%)" offset="1"/></linearGradient><clipPath id="8cc2420c67"><path d="M 93 31 L 187 31 L 187 50 L 93 50 Z M 93 31 " clip-rule="nonzero"/></clipPath></defs><g clip-path="url(#c67d9cb54a)"><g clip-path="url(#2d0861275e)"><path fill="#f1f8f9" d="M 0.976562 1.175781 L 92.128906 1.175781 L 92.128906 92.328125 L 0.976562 92.328125 Z M 0.976562 1.175781 " fill-opacity="1" fill-rule="nonzero"/><path stroke-linecap="butt" transform="matrix(0.22788, 0, 0, 0.22788, 0.975004, 1.174319)" fill="none" stroke-linejoin="miter" d="M 199.998984 0.00641791 C 89.537908 0.00641791 0.00684057 89.537486 0.00684057 199.998561 C 0.00684057 310.459637 89.537908 400.007847 199.998984 400.007847 C 310.46006 400.007847 400.008269 310.459637 400.008269 199.998561 C 400.008269 89.537486 310.46006 0.00641791 199.998984 0.00641791 Z M 199.998984 0.00641791 " stroke="url(#1e764350c5)" stroke-width="45.954327" stroke-miterlimit="4"/></g></g><path fill="#000000" d="M 42.566406 15.152344 C 44.511719 15.976562 45.90625 17.375 47.214844 18.996094 C 47.792969 18.550781 48.324219 18.109375 48.824219 17.582031 C 50.132812 16.335938 51.574219 15.457031 53.308594 14.933594 C 55.460938 14.511719 57.753906 14.542969 59.871094 15.125 C 61.851562 15.839844 63.558594 16.96875 65.007812 18.496094 C 65.761719 19.410156 66.414062 20.394531 66.976562 21.4375 L 66.976562 21.882812 L 67.644531 21.851562 C 70.273438 21.765625 72.535156 22.167969 74.914062 23.367188 C 76.78125 24.464844 78.347656 25.914062 79.527344 27.734375 C 80.578125 29.621094 80.855469 31.390625 80.832031 33.515625 C 80.789062 34.882812 80.550781 36.136719 80.074219 37.425781 L 80.652344 37.960938 C 82.679688 39.890625 84.15625 41.746094 85.058594 44.445312 C 85.597656 46.5625 85.660156 48.742188 85.25 50.890625 C 84.554688 53.347656 83.367188 55.40625 81.613281 57.261719 C 80.378906 58.382812 78.84375 59.597656 77.207031 60.011719 L 76.746094 60.070312 L 76.800781 60.890625 C 76.792969 62.546875 76.3125 64.109375 75.53125 65.5625 C 74.328125 67.390625 72.816406 68.851562 70.863281 69.84375 C 68.789062 70.828125 66.824219 71.257812 64.535156 71.171875 L 64.484375 71.5625 C 64.175781 73.472656 63.46875 75.121094 62.296875 76.664062 C 60.785156 78.40625 59.21875 79.75 57.042969 80.558594 L 56.539062 80.71875 L 56.136719 80.847656 C 54.492188 81.160156 52.511719 81.125 50.894531 80.691406 C 49.613281 80.226562 48.441406 79.578125 47.535156 78.546875 C 46.460938 76.980469 46.070312 75.035156 45.882812 73.171875 C 45.839844 72.246094 45.828125 71.320312 45.8125 70.394531 L 45.800781 69.597656 C 45.785156 68.757812 45.773438 67.917969 45.757812 67.078125 L 45.730469 65.367188 C 45.707031 63.972656 45.683594 62.574219 45.660156 61.179688 C 45.273438 61.511719 44.882812 61.847656 44.492188 62.179688 C 44.074219 62.542969 43.675781 62.921875 43.273438 63.304688 C 42.152344 64.292969 40.8125 64.9375 39.363281 65.3125 C 37.214844 65.628906 35.066406 65.542969 33.011719 64.820312 C 31.039062 63.914062 29.398438 62.484375 28.121094 60.738281 C 27.371094 59.515625 26.882812 58.398438 26.789062 56.960938 L 26.261719 57.101562 C 23.179688 57.890625 20.265625 58.179688 17.136719 57.429688 C 15.097656 56.792969 13.226562 55.824219 11.683594 54.332031 C 10.054688 52.546875 9.058594 50.566406 8.449219 48.226562 C 8.125 46.015625 8.144531 43.671875 8.972656 41.582031 L 9.25 40.976562 L 9.535156 40.347656 C 10.3125 38.796875 11.328125 37.515625 12.582031 36.3125 C 12.878906 36.128906 13.179688 35.941406 13.480469 35.757812 C 13.890625 35.46875 13.890625 35.46875 14.132812 34.980469 C 14.21875 33.976562 14.1875 33 14.148438 31.996094 C 14.09375 30.222656 14.578125 28.683594 15.355469 27.101562 C 16.429688 25.265625 17.890625 23.570312 19.699219 22.4375 C 21.707031 21.359375 23.828125 20.527344 26.140625 20.5625 C 26.859375 20.5625 27.433594 20.539062 28.121094 20.328125 C 28.664062 19.773438 29.042969 19.191406 29.457031 18.535156 C 30.386719 17.167969 31.761719 16.261719 33.199219 15.484375 C 36.308594 14.042969 39.371094 14 42.566406 15.152344 M 33.382812 18.398438 C 32.511719 19.050781 31.746094 19.753906 31.007812 20.550781 L 31.230469 21.214844 C 31.890625 21.515625 31.890625 21.515625 32.6875 21.757812 C 33.886719 22.160156 35.015625 22.582031 36.113281 23.214844 L 36.558594 23.878906 C 36.488281 24.464844 36.488281 24.464844 36.335938 24.992188 L 36.113281 25.210938 C 35.332031 25.285156 34.824219 25.230469 34.089844 24.9375 L 33.382812 24.574219 C 32.210938 24.007812 31.175781 23.652344 29.898438 23.4375 C 29.332031 24.398438 29.308594 25.347656 29.234375 26.441406 C 29.230469 27.375 29.386719 28.214844 29.578125 29.125 C 29.675781 29.652344 29.675781 29.652344 29.660156 30.445312 L 29.453125 30.984375 C 28.925781 31.304688 28.925781 31.304688 28.34375 31.429688 L 27.679688 31.207031 C 26.8125 29.5625 26.933594 27.652344 26.96875 25.851562 L 26.980469 25.015625 C 26.988281 24.339844 26.996094 23.667969 27.011719 22.992188 C 24.699219 23.164062 22.78125 23.46875 20.796875 24.769531 C 19.113281 25.980469 18.136719 27.390625 17.234375 29.234375 C 16.609375 30.78125 16.613281 32.457031 16.796875 34.09375 C 17.046875 34.9375 17.359375 35.625 17.910156 36.3125 C 18.578125 36.769531 18.578125 36.769531 19.242188 36.980469 L 19.683594 37.425781 C 19.742188 37.980469 19.742188 37.980469 19.683594 38.535156 L 19.242188 38.976562 C 18.519531 39.0625 18.519531 39.0625 17.6875 38.976562 C 17.019531 38.605469 16.503906 38.257812 15.992188 37.6875 L 15.6875 37.425781 C 15.15625 37.492188 14.820312 37.632812 14.371094 37.929688 C 12.910156 39.175781 11.945312 40.613281 11.277344 42.417969 C 10.777344 44.304688 10.78125 46.464844 11.179688 48.367188 C 11.378906 48.957031 11.625 49.527344 11.914062 50.078125 L 12.191406 50.609375 C 13.019531 51.992188 14.113281 52.988281 15.464844 53.855469 C 18.015625 55.117188 20.136719 55.300781 22.9375 55.21875 C 23.914062 55.15625 24.792969 54.921875 25.679688 54.519531 L 26.160156 54.347656 L 26.566406 54.074219 C 26.765625 53.546875 26.765625 53.546875 26.859375 52.910156 C 27.386719 50.519531 28.566406 48.40625 30.121094 46.527344 C 29.875 45.734375 29.589844 45.128906 29.011719 44.527344 C 27.960938 44.242188 26.941406 44.28125 25.859375 44.308594 C 25.292969 44.308594 24.726562 44.308594 24.15625 44.308594 C 23.78125 44.3125 23.78125 44.3125 23.398438 44.320312 C 22.792969 44.308594 22.792969 44.308594 22.347656 44.085938 L 22.347656 42.53125 C 22.847656 42.28125 23.15625 42.269531 23.710938 42.246094 L 24.265625 42.222656 L 24.847656 42.199219 C 26.03125 42.148438 27.179688 42.09375 28.34375 41.863281 L 28.402344 41.132812 C 28.609375 38.863281 28.945312 36.855469 30.238281 34.914062 C 31.183594 33.734375 32.328125 32.988281 33.671875 32.316406 L 34.117188 32.085938 C 35.820312 31.371094 37.859375 31.476562 39.667969 31.652344 C 41.585938 32.019531 43.066406 33.089844 44.550781 34.316406 C 44.941406 34.667969 45.308594 35.039062 45.660156 35.425781 C 45.886719 33.167969 45.925781 30.925781 45.925781 28.660156 C 45.925781 28.070312 45.929688 27.480469 45.933594 26.890625 C 46 23.40625 46 23.40625 44.898438 20.160156 C 44.042969 19.003906 42.945312 18.292969 41.664062 17.664062 C 38.863281 16.566406 35.90625 16.6875 33.382812 18.398438 M 51.878906 18.332031 C 50.644531 19.1875 49.65625 20.179688 48.996094 21.542969 C 48.289062 23.300781 48.261719 25.203125 48.28125 27.066406 L 48.285156 27.757812 C 48.285156 28.480469 48.292969 29.199219 48.296875 29.917969 C 48.300781 30.410156 48.300781 30.898438 48.304688 31.390625 C 48.308594 32.589844 48.316406 33.785156 48.324219 34.980469 L 48.992188 34.980469 C 49.488281 34.578125 49.488281 34.578125 49.878906 34.09375 L 49.878906 33.648438 L 50.25 33.46875 C 50.617188 33.28125 50.976562 33.089844 51.335938 32.886719 C 52.972656 32 54.449219 31.5 56.320312 31.429688 C 58.484375 31.507812 60.253906 32.0625 62.089844 33.207031 C 63.296875 34.027344 64.109375 35.007812 64.753906 36.3125 C 65.492188 38.089844 65.808594 39.945312 65.644531 41.863281 C 65.28125 43.945312 64.453125 45.769531 63.109375 47.402344 C 62.496094 48.09375 61.851562 48.753906 61.203125 49.414062 L 60.859375 49.765625 C 59.683594 50.972656 58.492188 52.144531 57.207031 53.238281 C 56.664062 53.71875 56.160156 54.226562 55.652344 54.742188 C 55.023438 55.378906 54.394531 55.996094 53.710938 56.574219 C 52.671875 57.460938 51.726562 58.4375 50.769531 59.410156 C 50.070312 60.121094 49.328125 60.785156 48.546875 61.402344 C 48.195312 62.109375 48.289062 62.871094 48.289062 63.644531 L 48.285156 64.195312 C 48.285156 64.582031 48.285156 64.972656 48.285156 65.359375 C 48.285156 65.941406 48.28125 66.519531 48.277344 67.097656 C 48.199219 71.683594 48.199219 71.683594 49.207031 76.109375 C 49.65625 76.878906 50.234375 77.375 50.992188 77.832031 C 51.894531 78.253906 52.75 78.472656 53.738281 78.582031 C 55.28125 78.421875 56.699219 78.074219 58.027344 77.25 C 59.402344 76.25 60.558594 75.035156 61.300781 73.488281 C 61.691406 72.589844 61.765625 71.695312 61.871094 70.726562 L 61.164062 70.402344 L 60.246094 69.976562 L 59.78125 69.765625 C 59.109375 69.453125 58.488281 69.140625 57.875 68.730469 C 57.332031 68.726562 57.332031 68.726562 56.761719 68.953125 C 56.125 69.433594 55.542969 69.964844 54.945312 70.5 C 54.320312 70.949219 54.320312 70.949219 53.605469 71.136719 C 52.988281 71.171875 52.988281 71.171875 52.542969 70.949219 C 52.363281 70.5625 52.363281 70.5625 52.324219 70.0625 C 52.816406 69.019531 53.558594 68.402344 54.433594 67.6875 L 54.824219 67.363281 C 55.378906 66.898438 55.9375 66.46875 56.539062 66.066406 C 57.191406 66.003906 57.683594 65.972656 58.316406 66.066406 C 58.875 66.328125 59.335938 66.578125 59.84375 66.910156 C 61.582031 67.96875 63.019531 68.527344 65.0625 68.589844 C 67.066406 68.53125 68.773438 68.160156 70.5 67.121094 C 71.851562 66.191406 72.761719 65.226562 73.496094 63.761719 C 73.929688 62.722656 73.929688 61.851562 73.859375 60.738281 L 73.152344 60.621094 C 70.511719 60.175781 68.632812 59.480469 66.4375 57.894531 L 65.867188 57.628906 C 65.289062 57.757812 65.289062 57.757812 64.753906 58.074219 C 63.417969 58.652344 62.230469 59.132812 60.757812 59.183594 L 60.09375 58.738281 C 60.023438 58.074219 60.023438 58.074219 60.09375 57.40625 C 60.640625 56.859375 61.074219 56.769531 61.8125 56.546875 C 63.234375 56.082031 64.242188 55.542969 65.253906 54.4375 C 65.816406 53.742188 66.125 53.1875 66.308594 52.300781 C 66.363281 51.605469 66.40625 50.910156 66.433594 50.214844 L 66.53125 49.636719 L 67.199219 49.191406 C 67.765625 49.234375 67.765625 49.234375 68.308594 49.414062 C 68.753906 50.078125 68.753906 50.078125 68.835938 50.632812 C 68.871094 52.253906 68.574219 53.386719 67.839844 54.832031 L 67.640625 55.40625 C 67.71875 55.90625 67.71875 55.90625 68.085938 56.296875 C 68.671875 56.679688 68.671875 56.679688 69.363281 56.988281 L 70.054688 57.324219 C 71.671875 58.027344 72.992188 58.238281 74.746094 58.074219 C 76.761719 57.667969 78.304688 56.734375 79.851562 55.40625 C 81.191406 54.210938 81.875 52.617188 82.519531 50.96875 C 82.992188 49.210938 82.933594 47.105469 82.597656 45.320312 C 82.003906 43.378906 80.949219 41.761719 79.480469 40.367188 C 78.199219 39.308594 76.597656 38.433594 74.96875 38.089844 C 74.671875 38.066406 74.371094 38.050781 74.070312 38.042969 C 73.90625 38.035156 73.742188 38.03125 73.570312 38.023438 C 73.222656 38.011719 72.878906 38.003906 72.53125 37.996094 C 72.085938 37.976562 71.640625 37.925781 71.195312 37.867188 L 70.75 37.203125 C 70.804688 36.507812 70.804688 36.507812 70.972656 35.871094 C 72.027344 35.339844 73.578125 35.597656 74.746094 35.648438 C 75.371094 35.753906 75.371094 35.753906 75.886719 35.882812 C 76.710938 36.136719 76.710938 36.136719 77.425781 36.007812 L 77.855469 35.871094 C 78.320312 34.277344 78.492188 32.828125 78.132812 31.195312 C 77.6875 29.644531 76.957031 28.371094 75.867188 27.183594 C 74.4375 25.867188 72.613281 25.042969 70.75 24.546875 C 69.9375 24.414062 69.132812 24.316406 68.308594 24.324219 L 68.085938 24.546875 C 68.082031 25.171875 68.085938 25.792969 68.101562 26.421875 C 68.117188 27.902344 68.105469 29.335938 67.640625 30.761719 L 67.421875 30.984375 L 65.644531 30.984375 L 65.644531 25.65625 L 64.535156 25.433594 C 63.953125 25.804688 63.953125 25.804688 63.421875 26.351562 L 62.835938 26.90625 C 62.449219 27.296875 62.070312 27.699219 61.703125 28.113281 L 61.203125 28.542969 C 60.46875 28.613281 60.46875 28.613281 59.871094 28.542969 C 59.609375 28.058594 59.609375 28.058594 59.425781 27.433594 C 59.867188 26.269531 60.941406 25.34375 61.871094 24.546875 C 62.507812 24.121094 63.15625 23.71875 63.816406 23.335938 L 64.3125 22.992188 L 64.535156 22.328125 C 63.824219 20.984375 62.589844 19.734375 61.425781 18.773438 C 60.058594 17.929688 58.851562 17.488281 57.246094 17.390625 C 55.332031 17.339844 53.589844 17.351562 51.878906 18.332031 M 31.453125 48.96875 C 30.515625 49.890625 29.742188 51.011719 29.34375 52.265625 C 28.984375 53.816406 28.90625 55.300781 29.28125 56.855469 C 29.773438 58.410156 30.480469 59.726562 31.683594 60.839844 C 32.820312 61.730469 34.0625 62.347656 35.449219 62.734375 C 36.960938 62.878906 38.511719 62.917969 39.957031 62.414062 C 41.242188 61.824219 42.226562 60.835938 43.21875 59.847656 C 43.183594 59.4375 43.183594 59.4375 42.996094 58.960938 C 42.546875 58.480469 42.546875 58.480469 41.984375 58.015625 C 41.25 57.378906 40.539062 56.742188 39.863281 56.046875 C 39.191406 55.367188 38.496094 54.738281 37.773438 54.117188 C 37.019531 53.453125 36.292969 52.765625 35.558594 52.078125 C 34.207031 50.808594 34.207031 50.808594 32.839844 49.550781 L 32.453125 49.199219 L 32.117188 48.96875 Z M 31.453125 48.96875 " fill-opacity="1" fill-rule="nonzero"/><path fill="#00bf63" d="M 40.386719 31.566406 C 41.957031 32.082031 43.308594 33.011719 44.550781 34.09375 C 44.859375 34.457031 45.152344 34.824219 45.441406 35.203125 L 45.660156 32.539062 L 45.882812 32.539062 L 45.882812 61.179688 C 44.773438 60.957031 44.773438 60.957031 44.363281 60.683594 L 43.996094 60.347656 L 43.628906 60.019531 C 42.992188 59.410156 42.375 58.785156 41.757812 58.160156 C 39.796875 56.164062 39.796875 56.164062 37.722656 54.289062 C 36.855469 53.53125 36.019531 52.734375 35.179688 51.949219 C 34.378906 51.195312 33.570312 50.449219 32.753906 49.710938 C 32.429688 49.417969 32.105469 49.128906 31.78125 48.835938 C 31.246094 48.320312 30.796875 47.78125 30.34375 47.191406 L 29.898438 46.75 C 29.730469 46.410156 29.574219 46.070312 29.425781 45.722656 L 29.1875 45.171875 L 29.011719 44.75 L 28.449219 44.738281 C 27.761719 44.71875 27.078125 44.699219 26.390625 44.679688 C 25.949219 44.667969 25.503906 44.65625 25.0625 44.648438 L 24.21875 44.621094 L 23.441406 44.601562 C 22.792969 44.527344 22.792969 44.527344 22.128906 44.085938 C 22.042969 43.308594 22.042969 43.308594 22.128906 42.53125 C 22.792969 42.085938 22.792969 42.085938 23.378906 42.015625 L 24.074219 41.996094 L 24.824219 41.96875 L 25.609375 41.949219 L 26.402344 41.921875 C 27.050781 41.902344 27.695312 41.882812 28.34375 41.863281 L 28.332031 41.335938 C 28.300781 39.28125 28.578125 37.585938 29.523438 35.742188 C 30.402344 34.332031 31.496094 33.214844 32.964844 32.425781 C 35.339844 31.320312 37.804688 31.078125 40.386719 31.566406 M 60.871094 32.25 C 62.328125 33.066406 63.554688 34 64.492188 35.398438 C 65.460938 37.085938 65.84375 38.875 65.921875 40.808594 C 65.890625 42.726562 65.242188 44.476562 64.292969 46.125 C 63.464844 47.339844 62.453125 48.371094 61.425781 49.414062 L 61.0625 49.789062 C 59.8125 51.0625 58.558594 52.3125 57.199219 53.46875 C 56.660156 53.945312 56.160156 54.453125 55.652344 54.964844 C 55.023438 55.601562 54.394531 56.21875 53.710938 56.796875 C 52.667969 57.683594 51.722656 58.667969 50.769531 59.652344 L 50.382812 60.046875 L 50.042969 60.398438 C 49.578125 60.804688 49.078125 61.09375 48.546875 61.402344 C 48.515625 58.015625 48.492188 54.625 48.480469 51.234375 C 48.472656 49.660156 48.460938 48.089844 48.449219 46.515625 C 48.433594 44.996094 48.425781 43.476562 48.421875 41.957031 C 48.417969 41.378906 48.414062 40.800781 48.40625 40.21875 C 48.398438 39.410156 48.394531 38.597656 48.398438 37.785156 L 48.382812 37.058594 C 48.394531 35.464844 48.394531 35.464844 48.832031 34.714844 C 49.992188 33.332031 51.589844 32.355469 53.253906 31.679688 C 55.769531 30.9375 58.492188 31.121094 60.871094 32.25 " fill-opacity="1" fill-rule="nonzero"/><path fill="#000000" d="M 69.195312 40.308594 C 69.722656 40.515625 70.242188 40.734375 70.75 40.976562 L 70.75 41.421875 L 71.148438 41.601562 C 71.96875 42.042969 72.574219 42.699219 73.234375 43.347656 L 73.664062 43.753906 C 74.0625 44.144531 74.417969 44.519531 74.746094 44.972656 C 74.972656 45.816406 74.972656 45.816406 74.96875 46.527344 C 74.621094 47.082031 74.621094 47.082031 74.082031 47.414062 C 73.476562 47.417969 73.476562 47.417969 72.75 47.191406 C 72.179688 46.75 71.699219 46.238281 71.207031 45.707031 C 70.949219 45.433594 70.6875 45.160156 70.425781 44.886719 L 70.039062 44.480469 C 69.523438 43.96875 68.96875 43.515625 68.394531 43.066406 C 68.085938 42.753906 68.085938 42.753906 67.835938 41.933594 L 67.863281 41.199219 C 68.140625 40.78125 68.140625 40.78125 68.53125 40.53125 Z M 28.34375 41.863281 C 28.492188 42.382812 28.640625 42.902344 28.789062 43.417969 L 28.941406 43.945312 L 29.011719 44.308594 L 28.789062 44.527344 C 27.800781 44.585938 26.808594 44.570312 25.820312 44.570312 L 24.972656 44.578125 L 24.160156 44.578125 L 23.414062 44.582031 C 22.792969 44.527344 22.792969 44.527344 22.128906 44.085938 C 22.042969 43.308594 22.042969 43.308594 22.128906 42.53125 C 22.792969 42.085938 22.792969 42.085938 23.234375 42.015625 L 23.734375 41.996094 L 24.285156 41.96875 L 24.859375 41.949219 L 25.425781 41.921875 C 26.398438 41.878906 27.371094 41.855469 28.34375 41.863281 " fill-opacity="1" fill-rule="nonzero"/><g clip-path="url(#8cc2420c67)"><path stroke-linecap="butt" transform="matrix(0.270293, 0, 0, 0.270293, 94.874303, 27.956471)" fill="none" stroke-linejoin="miter" d="M 47.693872 68.995475 L 47.636064 41.175555 L 33.979012 64.096279 L 29.152076 64.096279 L 15.581735 41.782535 L 15.581735 68.995475 L 5.494304 68.995475 L 5.494304 22.633759 L 14.382227 22.633759 L 31.738967 51.45086 L 48.835572 22.633759 L 57.651235 22.633759 L 57.781302 68.995475 Z M 102.943511 51.306341 C 102.943511 51.45086 102.885703 52.375782 102.755636 54.081107 L 75.788378 54.081107 C 76.279743 56.292249 77.421444 58.04093 79.227932 59.32715 C 81.048872 60.613369 83.303369 61.249253 85.991424 61.249253 C 87.841268 61.249253 89.488786 60.974667 90.933976 60.425494 C 92.364715 59.86187 93.69429 58.994756 94.937154 57.809699 L 100.443331 63.763885 C 97.090488 67.608092 92.17684 69.530196 85.73129 69.530196 C 81.71366 69.530196 78.158491 68.749793 75.065783 67.188987 C 71.958623 65.613729 69.574058 63.431491 67.897637 60.656725 C 66.221216 57.867507 65.383005 54.716991 65.383005 51.176274 C 65.383005 47.693365 66.206764 44.542849 67.868733 41.739179 C 69.516251 38.935509 71.799652 36.73882 74.690033 35.178014 C 77.594866 33.617208 80.832093 32.836805 84.401714 32.836805 C 87.884624 32.836805 91.049591 33.588304 93.867713 35.07685 C 96.700287 36.579849 98.911429 38.733183 100.51559 41.536853 C 102.134204 44.340522 102.943511 47.592201 102.943511 51.306341 Z M 84.473974 40.640834 C 82.132765 40.640834 80.167306 41.305622 78.563144 42.635197 C 76.987886 43.964773 76.019609 45.771261 75.658311 48.069114 L 93.202925 48.069114 C 92.85608 45.814617 91.887802 44.02258 90.298092 42.664101 C 88.708383 41.320074 86.771827 40.640834 84.473974 40.640834 Z M 131.500478 32.836805 C 135.922761 32.836805 139.492382 34.16638 142.209341 36.811079 C 144.926299 39.455778 146.284778 43.386697 146.284778 48.589383 L 146.284778 68.995475 L 135.951665 68.995475 L 135.951665 50.193545 C 135.951665 47.360971 135.330233 45.250993 134.087369 43.863609 C 132.844505 42.476226 131.052469 41.782535 128.725712 41.782535 C 126.124369 41.782535 124.043294 42.591842 122.49694 44.210455 C 120.950586 45.814617 120.184635 48.199181 120.184635 51.364149 L 120.184635 68.995475 L 109.83707 68.995475 L 109.83707 33.357073 L 119.707722 33.357073 L 119.707722 37.519222 C 121.080653 36.030676 122.771526 34.874524 124.809245 34.065217 C 126.846964 33.241458 129.072558 32.836805 131.500478 32.836805 Z M 178.613693 67.29015 C 177.587608 68.027197 176.344744 68.590822 174.87065 68.966571 C 173.396555 69.342321 171.835749 69.530196 170.202684 69.530196 C 165.953823 69.530196 162.67324 68.446303 160.360935 66.278517 C 158.04863 64.110731 156.878026 60.931311 156.878026 56.740258 L 156.878026 42.100477 L 151.386301 42.100477 L 151.386301 34.16638 L 156.878026 34.16638 L 156.878026 25.480784 L 167.225591 25.480784 L 167.225591 34.16638 L 176.099062 34.16638 L 176.099062 42.100477 L 167.225591 42.100477 L 167.225591 56.610191 C 167.225591 58.113189 167.601341 59.269342 168.367292 60.093101 C 169.147695 60.902407 170.246039 61.321513 171.647874 61.321513 C 173.295392 61.321513 174.682775 60.873504 175.824475 59.991937 Z M 219.339166 51.306341 C 219.339166 51.45086 219.281358 52.375782 219.151291 54.081107 L 192.184034 54.081107 C 192.675398 56.292249 193.817099 58.04093 195.638039 59.32715 C 197.444528 60.613369 199.699025 61.249253 202.401532 61.249253 C 204.251376 61.249253 205.898893 60.974667 207.329632 60.425494 C 208.76037 59.86187 210.104398 58.994756 211.33281 57.809699 L 216.838986 63.763885 C 213.486144 67.608092 208.586948 69.530196 202.141397 69.530196 C 198.109315 69.530196 194.554146 68.749793 191.461438 67.188987 C 188.36873 65.613729 185.984166 63.431491 184.293293 60.656725 C 182.631323 57.867507 181.793113 54.716991 181.793113 51.176274 C 181.793113 47.693365 182.616871 44.542849 184.264389 41.739179 C 185.926358 38.935509 188.195307 36.73882 191.085689 35.178014 C 193.990522 33.617208 197.227749 32.836805 200.811822 32.836805 C 204.294731 32.836805 207.445247 33.588304 210.277821 35.07685 C 213.095942 36.579849 215.307084 38.733183 216.925698 41.536853 C 218.544311 44.340522 219.339166 47.592201 219.339166 51.306341 Z M 200.869629 40.640834 C 198.528421 40.640834 196.562961 41.305622 194.973252 42.635197 C 193.383542 43.964773 192.415264 45.771261 192.053966 48.069114 L 209.613033 48.069114 C 209.266187 45.814617 208.297909 44.02258 206.693748 42.664101 C 205.11849 41.320074 203.167483 40.640834 200.869629 40.640834 Z M 242.216534 69.79033 C 238.54575 69.79033 234.990581 69.298965 231.565479 68.301783 C 228.154829 67.319054 225.408967 66.018382 223.327892 64.428673 L 226.969773 56.350057 C 228.964136 57.809699 231.319797 58.980304 234.051207 59.86187 C 236.797069 60.743436 239.52848 61.191445 242.274342 61.191445 C 245.323694 61.191445 247.578192 60.728984 249.037834 59.832966 C 250.497477 58.922496 251.220072 57.708536 251.220072 56.205538 C 251.220072 55.107193 250.786515 54.196723 249.9194 53.474127 C 249.066738 52.73708 247.953941 52.144552 246.609914 51.710995 C 245.265886 51.262986 243.459398 50.786073 241.161545 50.251352 C 237.620828 49.413142 234.730447 48.574931 232.475949 47.73672 C 230.221452 46.884058 228.284896 45.540031 226.666283 43.690187 C 225.062121 41.825891 224.252814 39.369067 224.252814 36.276359 C 224.252814 33.588304 224.989862 31.145932 226.435052 28.949242 C 227.894695 26.767004 230.091385 25.032775 233.025122 23.761007 C 235.973311 22.474788 239.557383 21.838904 243.791792 21.838904 C 246.754433 21.838904 249.659266 22.18575 252.477388 22.908345 C 255.309962 23.602036 257.781238 24.61367 259.905668 25.943245 L 256.581729 34.079669 C 252.303965 31.651748 248.026201 30.437788 243.733984 30.437788 C 240.727988 30.437788 238.516846 30.929153 237.071655 31.897431 C 235.626465 32.865709 234.918321 34.151928 234.918321 35.741638 C 234.918321 37.331348 235.74208 38.516404 237.404049 39.282355 C 239.066019 40.062758 241.595102 40.828709 244.9913 41.565756 C 248.532017 42.403967 251.422399 43.256629 253.676896 44.09484 C 255.931394 44.933051 257.867949 46.262626 259.472111 48.069114 C 261.090724 49.875603 261.900031 52.332427 261.900031 55.410683 C 261.900031 58.069834 261.148532 60.483302 259.659985 62.679992 C 258.185891 64.86223 255.960297 66.596459 252.997656 67.882678 C 250.049468 69.154446 246.450943 69.79033 242.216534 69.79033 Z M 303.420359 51.306341 C 303.420359 51.45086 303.348099 52.375782 303.218032 54.081107 L 276.265226 54.081107 C 276.742139 56.292249 277.898292 58.04093 279.70478 59.32715 C 281.511268 60.613369 283.765766 61.249253 286.468272 61.249253 C 288.318116 61.249253 289.965634 60.974667 291.396372 60.425494 C 292.827111 59.86187 294.171138 58.994756 295.414002 57.809699 L 300.905727 63.763885 C 297.552884 67.608092 292.653688 69.530196 286.208138 69.530196 C 282.190508 69.530196 278.620887 68.749793 275.528179 67.188987 C 272.435471 65.613729 270.050906 63.431491 268.374485 60.656725 C 266.698064 57.867507 265.859853 54.716991 265.859853 51.176274 C 265.859853 47.693365 266.683612 44.542849 268.331129 41.739179 C 269.993099 38.935509 272.2765 36.73882 275.166881 35.178014 C 278.057262 33.617208 281.29449 32.836805 284.878562 32.836805 C 288.361472 32.836805 291.511988 33.588304 294.344561 35.07685 C 297.162683 36.579849 299.388277 38.733183 300.992438 41.536853 C 302.611052 44.340522 303.420359 47.592201 303.420359 51.306341 Z M 284.950822 40.640834 C 282.609613 40.640834 280.644154 41.305622 279.039992 42.635197 C 277.450282 43.964773 276.482005 45.771261 276.135159 48.069114 L 293.679774 48.069114 C 293.332928 45.814617 292.36465 44.02258 290.77494 42.664101 C 289.185231 41.320074 287.248675 40.640834 284.950822 40.640834 Z M 320.18457 38.053943 C 321.427434 36.334166 323.089403 35.033495 325.18493 34.16638 C 327.280456 33.270362 329.708377 32.836805 332.439787 32.836805 L 332.439787 42.360611 C 331.283634 42.2739 330.517683 42.230544 330.127482 42.230544 C 327.164841 42.230544 324.838084 43.068755 323.161663 44.716272 C 321.485242 46.378241 320.647031 48.863969 320.647031 52.173456 L 320.647031 68.995475 L 310.313918 68.995475 L 310.313918 33.357073 L 320.18457 33.357073 Z M 320.18457 38.053943 " stroke="#8ed3e1" stroke-width="1.656433" stroke-opacity="1" stroke-miterlimit="4"/></g><g fill="#00bf63" fill-opacity="1"><g transform="translate(94.874303, 46.606692)"><g><path d="M 12.890625 0 L 12.875 -7.515625 L 9.1875 -1.328125 L 7.875 -1.328125 L 4.203125 -7.359375 L 4.203125 0 L 1.484375 0 L 1.484375 -12.53125 L 3.890625 -12.53125 L 8.578125 -4.75 L 13.203125 -12.53125 L 15.578125 -12.53125 L 15.609375 0 Z M 12.890625 0 "/></g></g></g><g fill="#00bf63" fill-opacity="1"><g transform="translate(111.975428, 46.606692)"><g><path d="M 10.71875 -4.78125 C 10.71875 -4.75 10.703125 -4.5 10.671875 -4.03125 L 3.390625 -4.03125 C 3.515625 -3.4375 3.820312 -2.960938 4.3125 -2.609375 C 4.800781 -2.265625 5.410156 -2.09375 6.140625 -2.09375 C 6.640625 -2.09375 7.082031 -2.164062 7.46875 -2.3125 C 7.863281 -2.46875 8.226562 -2.707031 8.5625 -3.03125 L 10.046875 -1.421875 C 9.140625 -0.378906 7.8125 0.140625 6.0625 0.140625 C 4.976562 0.140625 4.019531 -0.0664062 3.1875 -0.484375 C 2.351562 -0.910156 1.707031 -1.5 1.25 -2.25 C 0.800781 -3.007812 0.578125 -3.863281 0.578125 -4.8125 C 0.578125 -5.757812 0.800781 -6.609375 1.25 -7.359375 C 1.695312 -8.117188 2.3125 -8.710938 3.09375 -9.140625 C 3.875 -9.566406 4.75 -9.78125 5.71875 -9.78125 C 6.65625 -9.78125 7.503906 -9.578125 8.265625 -9.171875 C 9.035156 -8.765625 9.632812 -8.179688 10.0625 -7.421875 C 10.5 -6.660156 10.71875 -5.78125 10.71875 -4.78125 Z M 5.734375 -7.65625 C 5.097656 -7.65625 4.5625 -7.476562 4.125 -7.125 C 3.695312 -6.769531 3.4375 -6.28125 3.34375 -5.65625 L 8.09375 -5.65625 C 8 -6.269531 7.734375 -6.753906 7.296875 -7.109375 C 6.867188 -7.472656 6.347656 -7.65625 5.734375 -7.65625 Z M 5.734375 -7.65625 "/></g></g></g><g fill="#00bf63" fill-opacity="1"><g transform="translate(123.274705, 46.606692)"><g><path d="M 7.140625 -9.78125 C 8.335938 -9.78125 9.300781 -9.421875 10.03125 -8.703125 C 10.769531 -7.984375 11.140625 -6.921875 11.140625 -5.515625 L 11.140625 0 L 8.34375 0 L 8.34375 -5.078125 C 8.34375 -5.847656 8.175781 -6.421875 7.84375 -6.796875 C 7.507812 -7.171875 7.023438 -7.359375 6.390625 -7.359375 C 5.691406 -7.359375 5.128906 -7.140625 4.703125 -6.703125 C 4.285156 -6.265625 4.078125 -5.617188 4.078125 -4.765625 L 4.078125 0 L 1.296875 0 L 1.296875 -9.640625 L 3.953125 -9.640625 L 3.953125 -8.5 C 4.328125 -8.90625 4.785156 -9.21875 5.328125 -9.4375 C 5.878906 -9.664062 6.484375 -9.78125 7.140625 -9.78125 Z M 7.140625 -9.78125 "/></g></g></g><g fill="#00bf63" fill-opacity="1"><g transform="translate(135.648399, 46.606692)"><g><path d="M 7.5 -0.46875 C 7.226562 -0.257812 6.890625 -0.101562 6.484375 0 C 6.085938 0.09375 5.671875 0.140625 5.234375 0.140625 C 4.085938 0.140625 3.195312 -0.148438 2.5625 -0.734375 C 1.9375 -1.316406 1.625 -2.175781 1.625 -3.3125 L 1.625 -7.265625 L 0.140625 -7.265625 L 0.140625 -9.421875 L 1.625 -9.421875 L 1.625 -11.765625 L 4.421875 -11.765625 L 4.421875 -9.421875 L 6.828125 -9.421875 L 6.828125 -7.265625 L 4.421875 -7.265625 L 4.421875 -3.34375 C 4.421875 -2.9375 4.523438 -2.625 4.734375 -2.40625 C 4.941406 -2.1875 5.238281 -2.078125 5.625 -2.078125 C 6.0625 -2.078125 6.4375 -2.195312 6.75 -2.4375 Z M 7.5 -0.46875 "/></g></g></g><g fill="#00bf63" fill-opacity="1"><g transform="translate(143.437917, 46.606692)"><g><path d="M 10.71875 -4.78125 C 10.71875 -4.75 10.703125 -4.5 10.671875 -4.03125 L 3.390625 -4.03125 C 3.515625 -3.4375 3.820312 -2.960938 4.3125 -2.609375 C 4.800781 -2.265625 5.410156 -2.09375 6.140625 -2.09375 C 6.640625 -2.09375 7.082031 -2.164062 7.46875 -2.3125 C 7.863281 -2.46875 8.226562 -2.707031 8.5625 -3.03125 L 10.046875 -1.421875 C 9.140625 -0.378906 7.8125 0.140625 6.0625 0.140625 C 4.976562 0.140625 4.019531 -0.0664062 3.1875 -0.484375 C 2.351562 -0.910156 1.707031 -1.5 1.25 -2.25 C 0.800781 -3.007812 0.578125 -3.863281 0.578125 -4.8125 C 0.578125 -5.757812 0.800781 -6.609375 1.25 -7.359375 C 1.695312 -8.117188 2.3125 -8.710938 3.09375 -9.140625 C 3.875 -9.566406 4.75 -9.78125 5.71875 -9.78125 C 6.65625 -9.78125 7.503906 -9.578125 8.265625 -9.171875 C 9.035156 -8.765625 9.632812 -8.179688 10.0625 -7.421875 C 10.5 -6.660156 10.71875 -5.78125 10.71875 -4.78125 Z M 5.734375 -7.65625 C 5.097656 -7.65625 4.5625 -7.476562 4.125 -7.125 C 3.695312 -6.769531 3.4375 -6.28125 3.34375 -5.65625 L 8.09375 -5.65625 C 8 -6.269531 7.734375 -6.753906 7.296875 -7.109375 C 6.867188 -7.472656 6.347656 -7.65625 5.734375 -7.65625 Z M 5.734375 -7.65625 "/></g></g></g><g fill="#00bf63" fill-opacity="1"><g transform="translate(154.737195, 46.606692)"><g><path d="M 5.609375 0.21875 C 4.617188 0.21875 3.660156 0.0820312 2.734375 -0.1875 C 1.804688 -0.457031 1.0625 -0.804688 0.5 -1.234375 L 1.484375 -3.421875 C 2.023438 -3.023438 2.664062 -2.707031 3.40625 -2.46875 C 4.144531 -2.226562 4.882812 -2.109375 5.625 -2.109375 C 6.445312 -2.109375 7.054688 -2.226562 7.453125 -2.46875 C 7.847656 -2.71875 8.046875 -3.046875 8.046875 -3.453125 C 8.046875 -3.753906 7.925781 -4.003906 7.6875 -4.203125 C 7.457031 -4.398438 7.160156 -4.554688 6.796875 -4.671875 C 6.429688 -4.796875 5.9375 -4.925781 5.3125 -5.0625 C 4.363281 -5.289062 3.582031 -5.519531 2.96875 -5.75 C 2.363281 -5.976562 1.84375 -6.34375 1.40625 -6.84375 C 0.96875 -7.34375 0.75 -8.007812 0.75 -8.84375 C 0.75 -9.570312 0.945312 -10.226562 1.34375 -10.8125 C 1.738281 -11.40625 2.332031 -11.875 3.125 -12.21875 C 3.914062 -12.570312 4.882812 -12.75 6.03125 -12.75 C 6.832031 -12.75 7.613281 -12.648438 8.375 -12.453125 C 9.144531 -12.265625 9.816406 -11.992188 10.390625 -11.640625 L 9.484375 -9.4375 C 8.328125 -10.09375 7.171875 -10.421875 6.015625 -10.421875 C 5.203125 -10.421875 4.601562 -10.289062 4.21875 -10.03125 C 3.832031 -9.769531 3.640625 -9.421875 3.640625 -8.984375 C 3.640625 -8.554688 3.863281 -8.238281 4.3125 -8.03125 C 4.757812 -7.820312 5.441406 -7.613281 6.359375 -7.40625 C 7.316406 -7.1875 8.097656 -6.960938 8.703125 -6.734375 C 9.304688 -6.503906 9.828125 -6.144531 10.265625 -5.65625 C 10.703125 -5.164062 10.921875 -4.503906 10.921875 -3.671875 C 10.921875 -2.953125 10.71875 -2.296875 10.3125 -1.703125 C 9.914062 -1.117188 9.316406 -0.648438 8.515625 -0.296875 C 7.722656 0.046875 6.753906 0.21875 5.609375 0.21875 Z M 5.609375 0.21875 "/></g></g></g><g fill="#00bf63" fill-opacity="1"><g transform="translate(166.16182, 46.606692)"><g><path d="M 10.71875 -4.78125 C 10.71875 -4.75 10.703125 -4.5 10.671875 -4.03125 L 3.390625 -4.03125 C 3.515625 -3.4375 3.820312 -2.960938 4.3125 -2.609375 C 4.800781 -2.265625 5.410156 -2.09375 6.140625 -2.09375 C 6.640625 -2.09375 7.082031 -2.164062 7.46875 -2.3125 C 7.863281 -2.46875 8.226562 -2.707031 8.5625 -3.03125 L 10.046875 -1.421875 C 9.140625 -0.378906 7.8125 0.140625 6.0625 0.140625 C 4.976562 0.140625 4.019531 -0.0664062 3.1875 -0.484375 C 2.351562 -0.910156 1.707031 -1.5 1.25 -2.25 C 0.800781 -3.007812 0.578125 -3.863281 0.578125 -4.8125 C 0.578125 -5.757812 0.800781 -6.609375 1.25 -7.359375 C 1.695312 -8.117188 2.3125 -8.710938 3.09375 -9.140625 C 3.875 -9.566406 4.75 -9.78125 5.71875 -9.78125 C 6.65625 -9.78125 7.503906 -9.578125 8.265625 -9.171875 C 9.035156 -8.765625 9.632812 -8.179688 10.0625 -7.421875 C 10.5 -6.660156 10.71875 -5.78125 10.71875 -4.78125 Z M 5.734375 -7.65625 C 5.097656 -7.65625 4.5625 -7.476562 4.125 -7.125 C 3.695312 -6.769531 3.4375 -6.28125 3.34375 -5.65625 L 8.09375 -5.65625 C 8 -6.269531 7.734375 -6.753906 7.296875 -7.109375 C 6.867188 -7.472656 6.347656 -7.65625 5.734375 -7.65625 Z M 5.734375 -7.65625 "/></g></g></g><g fill="#00bf63" fill-opacity="1"><g transform="translate(177.461097, 46.606692)"><g><path d="M 3.953125 -8.359375 C 4.285156 -8.828125 4.734375 -9.179688 5.296875 -9.421875 C 5.867188 -9.660156 6.523438 -9.78125 7.265625 -9.78125 L 7.265625 -7.203125 C 6.953125 -7.222656 6.742188 -7.234375 6.640625 -7.234375 C 5.835938 -7.234375 5.207031 -7.007812 4.75 -6.5625 C 4.300781 -6.113281 4.078125 -5.441406 4.078125 -4.546875 L 4.078125 0 L 1.296875 0 L 1.296875 -9.640625 L 3.953125 -9.640625 Z M 3.953125 -8.359375 "/></g></g></g><g fill="#f1f8f9" fill-opacity="1"><g transform="translate(94.874303, 61.018456)"><g><path d="M 4 -7.4375 C 4.945312 -7.4375 5.6875 -7.207031 6.21875 -6.75 C 6.757812 -6.300781 7.03125 -5.679688 7.03125 -4.890625 C 7.03125 -4.097656 6.757812 -3.472656 6.21875 -3.015625 C 5.6875 -2.566406 4.945312 -2.34375 4 -2.34375 L 2 -2.34375 L 2 0 L 1.21875 0 L 1.21875 -7.4375 Z M 3.96875 -3.03125 C 4.707031 -3.03125 5.269531 -3.191406 5.65625 -3.515625 C 6.050781 -3.835938 6.25 -4.296875 6.25 -4.890625 C 6.25 -5.492188 6.050781 -5.953125 5.65625 -6.265625 C 5.269531 -6.585938 4.707031 -6.75 3.96875 -6.75 L 2 -6.75 L 2 -3.03125 Z M 3.96875 -3.03125 "/></g></g></g><g fill="#f1f8f9" fill-opacity="1"><g transform="translate(104.802325, 61.018456)"><g><path d="M 3.265625 0.0625 C 2.710938 0.0625 2.179688 -0.0234375 1.671875 -0.203125 C 1.160156 -0.378906 0.769531 -0.613281 0.5 -0.90625 L 0.8125 -1.515625 C 1.082031 -1.242188 1.4375 -1.023438 1.875 -0.859375 C 2.320312 -0.691406 2.785156 -0.609375 3.265625 -0.609375 C 3.929688 -0.609375 4.429688 -0.726562 4.765625 -0.96875 C 5.097656 -1.21875 5.265625 -1.535156 5.265625 -1.921875 C 5.265625 -2.222656 5.171875 -2.460938 4.984375 -2.640625 C 4.804688 -2.816406 4.585938 -2.953125 4.328125 -3.046875 C 4.066406 -3.140625 3.703125 -3.242188 3.234375 -3.359375 C 2.671875 -3.492188 2.222656 -3.628906 1.890625 -3.765625 C 1.554688 -3.898438 1.269531 -4.097656 1.03125 -4.359375 C 0.800781 -4.628906 0.6875 -5 0.6875 -5.46875 C 0.6875 -5.84375 0.785156 -6.179688 0.984375 -6.484375 C 1.179688 -6.796875 1.484375 -7.039062 1.890625 -7.21875 C 2.296875 -7.40625 2.804688 -7.5 3.421875 -7.5 C 3.847656 -7.5 4.265625 -7.441406 4.671875 -7.328125 C 5.078125 -7.210938 5.429688 -7.050781 5.734375 -6.84375 L 5.46875 -6.21875 C 5.15625 -6.425781 4.820312 -6.578125 4.46875 -6.671875 C 4.113281 -6.773438 3.765625 -6.828125 3.421875 -6.828125 C 2.765625 -6.828125 2.269531 -6.703125 1.9375 -6.453125 C 1.613281 -6.203125 1.453125 -5.878906 1.453125 -5.484375 C 1.453125 -5.179688 1.539062 -4.941406 1.71875 -4.765625 C 1.90625 -4.585938 2.132812 -4.445312 2.40625 -4.34375 C 2.675781 -4.25 3.039062 -4.144531 3.5 -4.03125 C 4.050781 -3.894531 4.492188 -3.757812 4.828125 -3.625 C 5.160156 -3.5 5.441406 -3.300781 5.671875 -3.03125 C 5.910156 -2.769531 6.03125 -2.414062 6.03125 -1.96875 C 6.03125 -1.59375 5.925781 -1.25 5.71875 -0.9375 C 5.519531 -0.632812 5.210938 -0.390625 4.796875 -0.203125 C 4.378906 -0.0234375 3.867188 0.0625 3.265625 0.0625 Z M 3.265625 0.0625 "/></g></g></g><g fill="#f1f8f9" fill-opacity="1"><g transform="translate(113.635619, 61.018456)"><g><path d="M 1.21875 -7.4375 L 2 -7.4375 L 2 0 L 1.21875 0 Z M 1.21875 -7.4375 "/></g></g></g><g fill="#f1f8f9" fill-opacity="1"><g transform="translate(119.14221, 61.018456)"><g><path d="M 4.4375 0.0625 C 3.707031 0.0625 3.046875 -0.0976562 2.453125 -0.421875 C 1.859375 -0.742188 1.390625 -1.191406 1.046875 -1.765625 C 0.710938 -2.347656 0.546875 -3 0.546875 -3.71875 C 0.546875 -4.4375 0.710938 -5.082031 1.046875 -5.65625 C 1.390625 -6.238281 1.859375 -6.691406 2.453125 -7.015625 C 3.046875 -7.335938 3.710938 -7.5 4.453125 -7.5 C 5.003906 -7.5 5.515625 -7.40625 5.984375 -7.21875 C 6.453125 -7.039062 6.847656 -6.773438 7.171875 -6.421875 L 6.671875 -5.921875 C 6.085938 -6.503906 5.351562 -6.796875 4.46875 -6.796875 C 3.882812 -6.796875 3.347656 -6.660156 2.859375 -6.390625 C 2.378906 -6.128906 2.003906 -5.765625 1.734375 -5.296875 C 1.460938 -4.828125 1.328125 -4.300781 1.328125 -3.71875 C 1.328125 -3.132812 1.460938 -2.609375 1.734375 -2.140625 C 2.003906 -1.671875 2.378906 -1.300781 2.859375 -1.03125 C 3.347656 -0.769531 3.882812 -0.640625 4.46875 -0.640625 C 5.363281 -0.640625 6.097656 -0.9375 6.671875 -1.53125 L 7.171875 -1.03125 C 6.847656 -0.675781 6.445312 -0.40625 5.96875 -0.21875 C 5.5 -0.03125 4.988281 0.0625 4.4375 0.0625 Z M 4.4375 0.0625 "/></g></g></g><g fill="#f1f8f9" fill-opacity="1"><g transform="translate(129.080861, 61.018456)"><g><path d="M 4.46875 0.0625 C 3.726562 0.0625 3.054688 -0.0976562 2.453125 -0.421875 C 1.859375 -0.753906 1.390625 -1.207031 1.046875 -1.78125 C 0.710938 -2.351562 0.546875 -3 0.546875 -3.71875 C 0.546875 -4.4375 0.710938 -5.082031 1.046875 -5.65625 C 1.390625 -6.226562 1.859375 -6.675781 2.453125 -7 C 3.054688 -7.332031 3.726562 -7.5 4.46875 -7.5 C 5.195312 -7.5 5.859375 -7.335938 6.453125 -7.015625 C 7.046875 -6.691406 7.507812 -6.238281 7.84375 -5.65625 C 8.1875 -5.082031 8.359375 -4.4375 8.359375 -3.71875 C 8.359375 -3 8.1875 -2.347656 7.84375 -1.765625 C 7.507812 -1.191406 7.046875 -0.742188 6.453125 -0.421875 C 5.859375 -0.0976562 5.195312 0.0625 4.46875 0.0625 Z M 4.46875 -0.640625 C 5.050781 -0.640625 5.578125 -0.769531 6.046875 -1.03125 C 6.523438 -1.300781 6.898438 -1.671875 7.171875 -2.140625 C 7.441406 -2.609375 7.578125 -3.132812 7.578125 -3.71875 C 7.578125 -4.300781 7.441406 -4.828125 7.171875 -5.296875 C 6.898438 -5.765625 6.523438 -6.128906 6.046875 -6.390625 C 5.578125 -6.660156 5.050781 -6.796875 4.46875 -6.796875 C 3.875 -6.796875 3.335938 -6.660156 2.859375 -6.390625 C 2.378906 -6.128906 2.003906 -5.765625 1.734375 -5.296875 C 1.460938 -4.828125 1.328125 -4.300781 1.328125 -3.71875 C 1.328125 -3.132812 1.460938 -2.609375 1.734375 -2.140625 C 2.003906 -1.671875 2.378906 -1.300781 2.859375 -1.03125 C 3.335938 -0.769531 3.875 -0.640625 4.46875 -0.640625 Z M 4.46875 -0.640625 "/></g></g></g><g fill="#f1f8f9" fill-opacity="1"><g transform="translate(140.294923, 61.018456)"><g><path d="M 1.21875 -7.4375 L 2 -7.4375 L 2 -0.6875 L 6.15625 -0.6875 L 6.15625 0 L 1.21875 0 Z M 1.21875 -7.4375 "/></g></g></g><g fill="#f1f8f9" fill-opacity="1"><g transform="translate(148.851877, 61.018456)"><g><path d="M 4.46875 0.0625 C 3.726562 0.0625 3.054688 -0.0976562 2.453125 -0.421875 C 1.859375 -0.753906 1.390625 -1.207031 1.046875 -1.78125 C 0.710938 -2.351562 0.546875 -3 0.546875 -3.71875 C 0.546875 -4.4375 0.710938 -5.082031 1.046875 -5.65625 C 1.390625 -6.226562 1.859375 -6.675781 2.453125 -7 C 3.054688 -7.332031 3.726562 -7.5 4.46875 -7.5 C 5.195312 -7.5 5.859375 -7.335938 6.453125 -7.015625 C 7.046875 -6.691406 7.507812 -6.238281 7.84375 -5.65625 C 8.1875 -5.082031 8.359375 -4.4375 8.359375 -3.71875 C 8.359375 -3 8.1875 -2.347656 7.84375 -1.765625 C 7.507812 -1.191406 7.046875 -0.742188 6.453125 -0.421875 C 5.859375 -0.0976562 5.195312 0.0625 4.46875 0.0625 Z M 4.46875 -0.640625 C 5.050781 -0.640625 5.578125 -0.769531 6.046875 -1.03125 C 6.523438 -1.300781 6.898438 -1.671875 7.171875 -2.140625 C 7.441406 -2.609375 7.578125 -3.132812 7.578125 -3.71875 C 7.578125 -4.300781 7.441406 -4.828125 7.171875 -5.296875 C 6.898438 -5.765625 6.523438 -6.128906 6.046875 -6.390625 C 5.578125 -6.660156 5.050781 -6.796875 4.46875 -6.796875 C 3.875 -6.796875 3.335938 -6.660156 2.859375 -6.390625 C 2.378906 -6.128906 2.003906 -5.765625 1.734375 -5.296875 C 1.460938 -4.828125 1.328125 -4.300781 1.328125 -3.71875 C 1.328125 -3.132812 1.460938 -2.609375 1.734375 -2.140625 C 2.003906 -1.671875 2.378906 -1.300781 2.859375 -1.03125 C 3.335938 -0.769531 3.875 -0.640625 4.46875 -0.640625 Z M 4.46875 -0.640625 "/></g></g></g><g fill="#f1f8f9" fill-opacity="1"><g transform="translate(160.065939, 61.018456)"><g><path d="M 6.453125 -3.71875 L 7.203125 -3.71875 L 7.203125 -0.875 C 6.859375 -0.570312 6.445312 -0.335938 5.96875 -0.171875 C 5.5 -0.015625 5 0.0625 4.46875 0.0625 C 3.726562 0.0625 3.0625 -0.0976562 2.46875 -0.421875 C 1.875 -0.742188 1.40625 -1.191406 1.0625 -1.765625 C 0.71875 -2.347656 0.546875 -3 0.546875 -3.71875 C 0.546875 -4.4375 0.71875 -5.082031 1.0625 -5.65625 C 1.40625 -6.238281 1.875 -6.691406 2.46875 -7.015625 C 3.0625 -7.335938 3.734375 -7.5 4.484375 -7.5 C 5.046875 -7.5 5.5625 -7.40625 6.03125 -7.21875 C 6.507812 -7.039062 6.914062 -6.773438 7.25 -6.421875 L 6.75 -5.921875 C 6.164062 -6.503906 5.421875 -6.796875 4.515625 -6.796875 C 3.910156 -6.796875 3.363281 -6.660156 2.875 -6.390625 C 2.394531 -6.128906 2.015625 -5.765625 1.734375 -5.296875 C 1.460938 -4.828125 1.328125 -4.300781 1.328125 -3.71875 C 1.328125 -3.132812 1.460938 -2.609375 1.734375 -2.140625 C 2.015625 -1.671875 2.394531 -1.300781 2.875 -1.03125 C 3.363281 -0.769531 3.90625 -0.640625 4.5 -0.640625 C 5.269531 -0.640625 5.921875 -0.832031 6.453125 -1.21875 Z M 6.453125 -3.71875 "/></g></g></g><g fill="#f1f8f9" fill-opacity="1"><g transform="translate(170.578522, 61.018456)"><g><path d="M 1.21875 -7.4375 L 2 -7.4375 L 2 0 L 1.21875 0 Z M 1.21875 -7.4375 "/></g></g></g><g fill="#f1f8f9" fill-opacity="1"><g transform="translate(176.085114, 61.018456)"><g><path d="M 5.875 -1.984375 L 1.734375 -1.984375 L 0.84375 0 L 0.015625 0 L 3.421875 -7.4375 L 4.203125 -7.4375 L 7.59375 0 L 6.765625 0 Z M 5.59375 -2.625 L 3.796875 -6.625 L 2.015625 -2.625 Z M 5.59375 -2.625 "/></g></g></g></svg>